<svg width="349" height="220" viewBox="0 0 349 220" fill="none" xmlns="http://www.w3.org/2000/svg">
<path d="M2 110.151C115.4 -34.9961 226.433 -32.8148 346.756 109.286V110.995C234.96 244.114 121.442 260.468 7.97351 117.802L2 110.151Z" fill="white" fill-opacity="0.2" stroke="white" stroke-width="3"/>
<path d="M36.4751 110.121C126.963 -5.71352 215.563 -3.9728 311.576 109.43V110.794C222.368 217.029 131.785 230.081 41.2417 116.226L36.4751 110.121Z" fill="white" fill-opacity="0.2" stroke="white" stroke-width="2"/>
<path d="M75.1721 110.792C141.129 26.1619 205.709 27.4337 275.693 110.287V111.284C210.669 188.9 144.644 198.436 78.6465 115.253L75.1721 110.792Z" fill="white" fill-opacity="0.2" stroke="white"/>
<path d="M115.277 111.813C155.777 59.8061 195.432 60.5876 238.404 111.503V112.116C198.477 159.813 157.935 165.673 117.411 114.555L115.277 111.813Z" fill="white" fill-opacity="0.2" stroke="white"/>
</svg>
