<svg width="471" height="480" viewBox="0 0 471 480" fill="none" xmlns="http://www.w3.org/2000/svg">
<path d="M173.101 247.929L205.897 266.88L156.07 295.68L72.8256 247.795L122.843 218.88" fill="#0F7778"/>
<path d="M173.101 247.929L205.897 266.88L156.07 295.68L72.8256 247.795L122.843 218.88" stroke="white" stroke-miterlimit="10" stroke-linecap="round" stroke-linejoin="round"/>
<path d="M72.8256 343.795V247.795L156.07 295.68V391.68L72.8256 343.795Z" fill="#0F7778" stroke="white" stroke-miterlimit="10" stroke-linecap="round" stroke-linejoin="round"/>
<path d="M156.074 295.68L205.9 266.88V362.88L156.074 391.68V295.68Z" fill="#0F7778" stroke="white" stroke-miterlimit="10" stroke-linecap="round" stroke-linejoin="round"/>
<path d="M147.758 194.88V261.955L172.681 247.68V192.768" fill="#0F7778"/>
<path d="M147.758 194.88V261.955L172.681 247.68V192.768" stroke="white" stroke-miterlimit="10" stroke-linecap="round" stroke-linejoin="round"/>
<path d="M124.203 184.445L122.851 247.555L147.764 262.08V194.88L156.078 199.68L140.582 168.97" fill="#0F7778"/>
<path d="M124.203 184.445L122.851 247.555L147.764 262.08V194.88L156.078 199.68L140.582 168.97L124.203 167L114.499 177.5L124.203 184.445Z" stroke="white" stroke-miterlimit="10" stroke-linecap="round" stroke-linejoin="round"/>
<path d="M139.998 168L155.869 199.68L182.998 188" fill="#0F7778"/>
<path d="M139.998 168L155.869 199.68L182.998 188L164.998 156L139.998 168Z" stroke="white" stroke-miterlimit="10" stroke-linecap="round" stroke-linejoin="round"/>
<path d="M182.999 188.18L164.999 157.5L140.499 169.5" fill="#0F7778"/>
<path d="M182.999 188.18L164.999 157.5L140.499 169.5L155.999 200L182.999 188.18Z" stroke="white" stroke-miterlimit="10" stroke-linecap="round" stroke-linejoin="round"/>
<path d="M114.541 71.0303L143.903 101.914L156.072 142.55L143.903 169.133L114.541 166.08L85.1881 135.187L73.0193 94.5503L85.1881 67.9775L114.541 71.0303Z" fill="#0F7778" stroke="white" stroke-miterlimit="10" stroke-linecap="round" stroke-linejoin="round"/>
<path d="M280.747 358.905L310.11 389.798L322.269 430.425L310.11 457.008L280.747 453.955L251.499 428L239.226 382.425L251.385 355.853L280.747 358.905Z" fill="#0F7778" stroke="white" stroke-miterlimit="10" stroke-linecap="round" stroke-linejoin="round"/>
<path d="M185.204 145.344L143.913 169.104L156.053 142.579L179.709 128.86" fill="#0F7778"/>
<path d="M185.204 145.344L143.913 169.104L156.053 142.579L179.709 128.86" stroke="white" stroke-miterlimit="10" stroke-linecap="round" stroke-linejoin="round"/>
<path d="M322.619 430.436L371.898 401.684L359.501 433.5L310.575 456.826L322.619 430.436Z" fill="#0F7778" stroke="white" stroke-miterlimit="10" stroke-linecap="round" stroke-linejoin="round"/>
<path d="M180.131 128.63L156.091 142.569L143.922 101.932L193.719 73.0459L201.419 99.0619" fill="#0F7778"/>
<path d="M180.131 128.63L156.091 142.569L143.922 101.932L193.719 73.0459L201.419 99.0619" stroke="white" stroke-miterlimit="10" stroke-linecap="round" stroke-linejoin="round"/>
<path d="M201.386 98.9756L176.473 113.376L238.19 148.79L238.391 138.144L255.134 128.592L201.386 98.9756Z" fill="#0F7778" stroke="white" stroke-miterlimit="10" stroke-linecap="round" stroke-linejoin="round"/>
<path d="M246.502 156.5L238.502 138.5L238.192 148.79L176.533 113.251L180.062 129.59V141.12L222.037 170.88" fill="#0F7778"/>
<path d="M246.502 156.5L238.502 138.5L238.192 148.79L176.533 113.251L180.062 129.59V141.12L222.037 170.88" stroke="white" stroke-miterlimit="10" stroke-linecap="round" stroke-linejoin="round"/>
<path d="M310.115 389.808L359.922 360.922L371.976 401.645L322.6 430.867L310.115 389.808Z" fill="#0F7778" stroke="white" stroke-miterlimit="10" stroke-linecap="round" stroke-linejoin="round"/>
<path d="M114.54 71.0017L164.375 42.2305L193.767 73.1233L143.931 101.933L114.54 71.0017Z" fill="#0F7778" stroke="white" stroke-miterlimit="10" stroke-linecap="round" stroke-linejoin="round"/>
<path d="M280.733 358.877L330.578 330.105L359.959 361.008L310.124 389.808L280.733 358.877Z" fill="#0F7778" stroke="white" stroke-miterlimit="10" stroke-linecap="round" stroke-linejoin="round"/>
<path d="M114.533 71.0212L164.378 42.2021L135.006 39.1396L85.1894 67.978L114.533 71.0212Z" fill="#0F7778" stroke="white" stroke-miterlimit="10" stroke-linecap="round" stroke-linejoin="round"/>
<path d="M289.778 333.629L251.383 355.853L280.736 358.896L330.571 330.077L317 327.5" fill="#0F7778"/>
<path d="M289.778 333.629L251.383 355.853L280.736 358.896L330.571 330.077L317 327.5" stroke="white" stroke-miterlimit="10" stroke-linecap="round" stroke-linejoin="round"/>
<path d="M316.952 327.158L296.018 344.467L271.901 302.4L287.56 308.851L287.014 267.398L308.647 255.158V322.358L316.952 327.158Z" fill="#0F7778" stroke="white" stroke-miterlimit="10" stroke-linecap="round" stroke-linejoin="round"/>
<path d="M308.647 322.358L329.178 310.531L330 243L308.551 254.928L308.647 322.358Z" fill="#0F7778" stroke="white" stroke-miterlimit="10" stroke-linecap="round" stroke-linejoin="round"/>
<path d="M272.021 141.331L322.163 113.28L380.294 214.08L329.979 242.611L272.021 141.331Z" fill="#0F7778" stroke="white" stroke-miterlimit="10" stroke-linecap="round" stroke-linejoin="round"/>
<path d="M214.31 175.747L272.001 141.5L330.465 242.88L271.001 277L214.31 175.747Z" fill="#0F7778" stroke="white" stroke-miterlimit="10" stroke-linecap="round" stroke-linejoin="round"/>
<path d="M256.5 131L264 128L272.5 141L246.5 156.5L238.5 138.5L254 129.5L256.5 131Z" fill="#0F7778" stroke="white"/>
<path d="M73.0193 343.68L156.072 391.68L205.898 362.698L205.697 267.533L172.681 248.439V193.411L182.702 187.651L164.377 156.355L185.416 146.016L222.507 170.88L214.308 175.603L270.5 277L286 269.5V293.5L271.499 302.343L288.942 334.08L251.38 355.853L239.221 382.147L251.38 427.575L280.637 453.898L310.115 456.557L359.96 432.73L372.676 401.683L359.96 360.922L333.58 331.834L317.556 327.504L339.334 316.099L329.179 309.216L330.569 243.418L380.29 214.08L322.265 113.347L272.333 140.045L264.134 127.747L256.77 130.733L200.941 98.4577L193.768 73.0465L164.377 42.2209L135.129 39.1777L85.2073 67.9873L73.0193 94.5601L85.1881 135.159L114.541 166.08L124.955 167.683L115.346 177.543L123.5 184.5L122.5 218.5L73.9398 247.584L73.0193 343.68Z" stroke="white" stroke-miterlimit="10" stroke-linecap="round" stroke-linejoin="round"/>
<path d="M72.0193 343.671C72.0158 344.031 72.2067 344.366 72.5189 344.546L155.572 392.546C155.882 392.725 156.265 392.725 156.575 392.545L206.401 363.562C206.71 363.383 206.899 363.052 206.898 362.696L206.697 267.531C206.696 267.175 206.506 266.846 206.198 266.667L173.681 247.862V193.99L183.2 188.518C183.431 188.385 183.6 188.166 183.668 187.908C183.737 187.65 183.699 187.376 183.565 187.146L165.783 156.778L185.338 147.168L220.615 170.816L213.809 174.737C213.334 175.01 213.168 175.614 213.436 176.092L269.917 276.873C270.181 277.343 270.77 277.52 271.249 277.272L286 269.643V293.403L271.025 301.462C270.79 301.588 270.615 301.803 270.54 302.059C270.464 302.315 270.494 302.59 270.622 302.824L287.595 333.705L250.879 354.988C250.701 355.091 250.559 355.246 250.473 355.433L238.314 381.728C238.215 381.94 238.195 382.18 238.255 382.406L250.414 427.833C250.465 428.02 250.568 428.189 250.712 428.318L279.969 454.641C280.129 454.786 280.332 454.874 280.548 454.894L310.025 457.553C310.204 457.569 310.384 457.537 310.546 457.459L360.392 433.632C360.616 433.525 360.792 433.338 360.886 433.109L373.601 402.062C373.689 401.847 373.7 401.608 373.63 401.386L360.915 360.624C360.872 360.485 360.799 360.358 360.701 360.25L334.321 331.162C334.192 331.02 334.026 330.918 333.841 330.868L320.283 327.205L339.798 316.985C340.109 316.822 340.312 316.507 340.332 316.156C340.352 315.805 340.186 315.469 339.895 315.272L330.19 308.694L331.557 243.996L380.798 214.941C381.27 214.663 381.43 214.056 381.156 213.581L323.131 112.848C322.862 112.38 322.269 112.211 321.793 112.465L272.662 138.735L264.966 127.193C264.703 126.798 264.198 126.642 263.759 126.821L256.847 129.623L201.793 97.7952L194.73 72.7749C194.686 72.618 194.604 72.4744 194.492 72.3565L165.1 41.5309C164.936 41.3589 164.717 41.2509 164.48 41.2263L135.233 38.1831C135.023 38.1613 134.812 38.2063 134.629 38.3116L84.7074 67.1212C84.5278 67.2249 84.3848 67.3819 84.2983 67.5704L72.1103 94.1432C72.009 94.3642 71.9916 94.6144 72.0614 94.8473L84.2302 135.446C84.2752 135.596 84.3549 135.733 84.4628 135.847L113.816 166.769C113.968 166.929 114.17 167.035 114.389 167.068L122.883 168.376L114.63 176.845C114.429 177.051 114.327 177.334 114.35 177.621C114.372 177.908 114.518 178.172 114.748 178.344L122.992 184.496L122.508 217.923L73.4337 246.722C73.1307 246.899 72.9432 247.223 72.9399 247.575L72.0193 343.671Z" stroke="white" stroke-width="2" stroke-miterlimit="10" stroke-linecap="round" stroke-linejoin="round"/>
<path d="M125.195 167.525L140.289 169.473C140.421 169.49 140.536 169.571 140.595 169.691L154.886 198.271C155.065 198.629 154.665 198.999 154.322 198.793L148.601 195.36C148.335 195.201 147.997 195.391 147.995 195.7L147.505 261.305C147.503 261.613 147.167 261.803 146.901 261.646L123.2 247.618C123.076 247.545 123.001 247.411 123.004 247.268L123.997 185.191C123.999 185.07 123.946 184.955 123.853 184.878L115.336 177.78C115.156 177.63 115.143 177.357 115.31 177.19L124.861 167.639C124.949 167.551 125.072 167.509 125.195 167.525Z" fill="#0F7778" stroke="white"/>
<path d="M272.5 302L287 294V308L272.5 302Z" fill="#0F7778" stroke="white"/>
<path d="M308.745 321.567L329.234 309.655C329.397 309.56 329.6 309.565 329.758 309.668L338.783 315.534C339.104 315.742 339.081 316.219 338.742 316.396L317.744 327.372C317.592 327.452 317.41 327.448 317.262 327.362L308.746 322.432C308.414 322.239 308.413 321.76 308.745 321.567Z" fill="#0F7778" stroke="white"/>
</svg>
