<svg width="481" height="491" viewBox="0 0 481 491" fill="none" xmlns="http://www.w3.org/2000/svg">
<path d="M199.82 28.0947L317.334 96.1277L376.092 198.177V254.878L405.471 328.577L376.092 345.585V390.944L258.577 458.977L150.855 397.621V339.919L82.3047 243.536V96.1277L199.82 28.0947Z" fill="#7DA068" stroke="white" stroke-width="2" stroke-miterlimit="10" stroke-linejoin="round"/>
<path d="M141.059 62.1113L258.573 130.144L317.331 232.194V288.894L346.71 362.594" stroke="white" stroke-width="2" stroke-miterlimit="10" stroke-linejoin="round"/>
<path d="M376.089 345.585L317.332 379.601V424.96L258.574 390.944V458.977" stroke="white" stroke-width="2" stroke-miterlimit="10" stroke-linejoin="round"/>
<path d="M317.332 288.894L376.089 254.878" stroke="white" stroke-miterlimit="10" stroke-linejoin="round"/>
<path d="M317.332 232.194L376.089 198.178" stroke="white" stroke-miterlimit="10" stroke-linejoin="round"/>
<path d="M258.574 130.144L317.332 96.1279" stroke="white" stroke-miterlimit="10" stroke-linejoin="round"/>
<path d="M238.988 223.523L253.188 222.07L243.395 196.39L229.773 197.785L199.817 159.624V141.487L180.231 130.145V148.292L150.274 151.758L136.652 134.603L126.859 148.94L141.059 166.832V206.849L126.859 208.302L136.652 233.981L150.274 232.587L180.231 270.747V288.895L199.817 300.237V282.089L229.773 278.623L243.395 295.778L253.188 281.441L238.988 263.549V223.523ZM219.402 254.878L189.994 258.286L160.586 220.822L160.645 175.503L190.053 172.096L219.461 209.559L219.402 254.878Z" fill="#7DA068" stroke="white" stroke-width="2" stroke-miterlimit="10" stroke-linejoin="round"/>
</svg>
