<svg width="471" height="480" viewBox="0 0 471 480" fill="none" xmlns="http://www.w3.org/2000/svg">
<path d="M406 111.108V406.892L331.528 450L257.056 406.892V357.594L214.5 382.243L140.028 339.135V289.837L97.4722 314.486L23 271.271V148.135L97.4722 105.026L140.028 129.675L214.5 86.4598L257.056 111.108L331.528 68L406 111.108Z" fill="#F5AE2E" stroke="white" stroke-width="2" stroke-miterlimit="10" stroke-linejoin="round"/>
<path d="M23 148L97.4545 191L140 166.418" fill="#F5AE2E"/>
<path d="M23 148L97.4545 191L140 166.418" stroke="white" stroke-miterlimit="10" stroke-linejoin="round"/>
<path d="M257 148.398L214.455 172.982L140 130V339" fill="#F5AE2E"/>
<path d="M257 148.398L214.455 172.982L140 130V339" stroke="white" stroke-miterlimit="10" stroke-linejoin="round"/>
<path d="M406 111L331.5 154.252L257 111V358" fill="#F5AE2E"/>
<path d="M406 111L331.5 154.252L257 111V358" stroke="white" stroke-miterlimit="10" stroke-linejoin="round"/>
<path d="M214 173V382" stroke="white" stroke-miterlimit="10" stroke-linejoin="round"/>
<path d="M97 191V315" stroke="white" stroke-miterlimit="10" stroke-linejoin="round"/>
<path d="M332 154V450" stroke="white" stroke-miterlimit="10" stroke-linejoin="round"/>
</svg>
