<svg width="625" height="638" viewBox="0 0 625 638" fill="none" xmlns="http://www.w3.org/2000/svg">
<path d="M432.042 332.308L389.336 307.651L389.165 246.01L282.527 184.443L282.498 135.477L389.133 196.9L389.141 209.214L442.716 240.145L495.801 209.323L495.76 147.828L442.697 117.192L410.757 135.677L314.476 80.0889L314.462 55.3079L261.012 24.6046L207.736 55.3879L207.905 116.885L218.457 122.821L218.526 222.067L175.85 246.079L175.862 270.419L176.044 344.517L176.061 369.144L229.316 399.89L229.359 461.457L208.025 474.269L208.194 535.396L261.512 566.18L314.79 535.468L314.748 473.973L293.459 461.682L293.431 424.598L378.71 375.367L410.738 393.716L410.941 406.284L464.131 436.994L517.534 406.213L517.493 344.717L464.051 314.147L432.042 332.308Z" fill="black"/>
<path d="M389.238 197.591L389.247 209.904L442.524 179.193L442.482 117.698L410.794 136.043" stroke="white" stroke-width="2" stroke-miterlimit="10" stroke-linecap="round" stroke-linejoin="round"/>
<path d="M421.24 178.999L389.428 197.558L282.663 135.917L314.667 117.469L421.24 178.999Z" stroke="white" stroke-width="2" stroke-miterlimit="10" stroke-linecap="round" stroke-linejoin="round"/>
<path d="M314.666 117.469L314.64 80.5293L421.406 142.17L421.431 179.111L314.666 117.469Z" stroke="white" stroke-width="2" stroke-miterlimit="10" stroke-linecap="round" stroke-linejoin="round"/>
<path d="M207.91 56.2587L207.949 117.61L261.226 86.8987L261.185 25.4036L207.91 56.2587Z" stroke="white" stroke-width="2" stroke-miterlimit="10" stroke-linecap="round" stroke-linejoin="round"/>
<path d="M314.502 56.1879L261.183 25.4043L261.225 86.8994L314.353 118.013L314.502 56.1879Z" stroke="white" stroke-width="2" stroke-miterlimit="10" stroke-linecap="round" stroke-linejoin="round"/>
<path d="M495.803 148.481L442.484 117.697L442.526 179.192L495.844 209.976L495.803 148.481Z" stroke="white" stroke-width="2" stroke-miterlimit="10" stroke-linecap="round" stroke-linejoin="round"/>
<path d="M282.471 136.175L314.544 117.682L261.225 86.8986L207.948 117.61" stroke="white" stroke-width="2" stroke-miterlimit="10" stroke-linecap="round" stroke-linejoin="round"/>
<path d="M250.559 203.329L250.5 105.324L282.529 123.817L282.566 185.394" stroke="white" stroke-width="2" stroke-miterlimit="10" stroke-linecap="round" stroke-linejoin="round"/>
<path d="M410.965 394.337L410.975 407.091L464.252 376.38L464.21 314.885L432.076 333.485" stroke="white" stroke-width="2" stroke-miterlimit="10" stroke-linecap="round" stroke-linejoin="round"/>
<path d="M442.522 179.193L389.245 209.904L442.564 240.688L495.841 209.976L442.522 179.193Z" stroke="white" stroke-width="2" stroke-miterlimit="10" stroke-linecap="round" stroke-linejoin="round"/>
<path d="M218.499 123.772L250.503 105.324L250.562 203.329" stroke="white" stroke-width="2" stroke-miterlimit="10" stroke-linecap="round" stroke-linejoin="round"/>
<path d="M175.955 345.394L175.973 370.02L282.652 308.528L282.567 185.394L175.898 247.163L175.919 272.005" stroke="white" stroke-width="2" stroke-miterlimit="10" stroke-linecap="round" stroke-linejoin="round"/>
<path d="M389.468 345.426L442.851 376.246L410.841 394.705L378.811 376.212" stroke="white" stroke-width="2" stroke-miterlimit="10" stroke-linecap="round" stroke-linejoin="round"/>
<path d="M517.533 345.668L464.214 314.885L464.256 376.38L517.575 407.163L517.533 345.668Z" stroke="white" stroke-width="2" stroke-miterlimit="10" stroke-linecap="round" stroke-linejoin="round"/>
<path d="M389.471 345.425L389.445 308.485L442.828 339.306L442.853 376.246L389.471 345.425Z" stroke="white" stroke-width="2" stroke-miterlimit="10" stroke-linecap="round" stroke-linejoin="round"/>
<path d="M389.335 247.036L282.57 185.395L282.656 308.528L389.421 370.169L389.335 247.036Z" stroke="white" stroke-width="2" stroke-miterlimit="10" stroke-linecap="round" stroke-linejoin="round"/>
<path d="M464.257 376.38L410.979 407.092L464.298 437.875L517.575 407.164L464.257 376.38Z" stroke="white" stroke-width="2" stroke-miterlimit="10" stroke-linecap="round" stroke-linejoin="round"/>
<path d="M293.409 425.513L389.421 370.17L282.656 308.529L175.976 370.021L229.989 401.205" fill="black"/>
<path d="M293.409 425.513L389.421 370.17L282.656 308.529L175.976 370.021L229.989 401.205" stroke="white" stroke-width="2" stroke-miterlimit="10" stroke-linecap="round" stroke-linejoin="round"/>
<path d="M261.419 468.587L261.359 382.394L293.389 400.886L293.434 462.596" fill="black"/>
<path d="M261.419 468.587L261.359 382.394L293.389 400.886L293.434 462.596" stroke="white" stroke-width="2" stroke-miterlimit="10" stroke-linecap="round" stroke-linejoin="round"/>
<path d="M229.393 462.193L229.354 400.841L261.358 382.394L261.404 444.104" fill="black"/>
<path d="M229.393 462.193L229.354 400.841L261.358 382.394L261.404 444.104" stroke="white" stroke-width="2" stroke-miterlimit="10" stroke-linecap="round" stroke-linejoin="round"/>
<path d="M208.195 474.996L208.234 536.348L261.511 505.636L261.47 444.141L208.195 474.996Z" stroke="white" stroke-width="2" stroke-miterlimit="10" stroke-linecap="round" stroke-linejoin="round"/>
<path d="M314.791 474.925L261.472 444.142L261.514 505.637L314.833 536.42L314.791 474.925Z" stroke="white" stroke-width="2" stroke-miterlimit="10" stroke-linecap="round" stroke-linejoin="round"/>
<path d="M261.51 505.636L208.233 536.347L261.552 567.131L314.829 536.42L261.51 505.636Z" fill="black" stroke="white" stroke-width="2" stroke-miterlimit="10" stroke-linecap="round" stroke-linejoin="round"/>
<path d="M432.081 333.259L389.375 308.602L389.204 246.962L282.566 185.394L282.537 136.428L389.172 197.852L389.18 210.165L442.755 241.097L495.84 210.274L495.799 148.779L442.736 118.143L410.796 136.628L314.515 81.0401L314.502 56.2591L261.051 25.5558L207.775 56.3391L207.944 117.836L218.496 123.772L218.565 223.018L175.889 247.031L175.901 271.37L176.083 345.468L176.1 370.095L229.355 400.841L229.398 462.408L208.064 475.22L208.233 536.348L261.551 567.131L314.829 536.42L314.787 474.924L293.498 462.633L293.47 425.55L378.75 376.318L410.777 394.667L410.98 407.235L464.171 437.945L517.573 407.164L517.532 345.669L464.09 315.098L432.081 333.259Z" stroke="white" stroke-width="2" stroke-miterlimit="10" stroke-linecap="round" stroke-linejoin="round"/>
</svg>
