<svg width="201" height="204" viewBox="0 0 201 204" fill="none" xmlns="http://www.w3.org/2000/svg">
<path d="M74.0017 105.37L87.9276 113.424L66.77 125.664L31.4219 105.313L52.6609 93.0239" stroke="white" stroke-miterlimit="10" stroke-linecap="round" stroke-linejoin="round"/>
<path d="M31.4219 146.113V105.313L66.77 125.664V166.464L31.4219 146.113Z" stroke="white" stroke-miterlimit="10" stroke-linecap="round" stroke-linejoin="round"/>
<path d="M66.7734 125.664L87.931 113.424V154.224L66.7734 166.464V125.664Z" stroke="white" stroke-miterlimit="10" stroke-linecap="round" stroke-linejoin="round"/>
<path d="M63.2422 82.8239V111.331L73.825 105.264V81.9263" stroke="white" stroke-miterlimit="10" stroke-linecap="round" stroke-linejoin="round"/>
<path d="M53.2382 78.389L52.6641 105.211L63.2428 111.384V82.8239L66.7732 84.8639L60.193 71.812" stroke="white" stroke-miterlimit="10" stroke-linecap="round" stroke-linejoin="round"/>
<path d="M60.2969 72.02L66.6847 84.8639L77.6788 79.9679" stroke="white" stroke-miterlimit="10" stroke-linecap="round" stroke-linejoin="round"/>
<path d="M49.1391 30.1881L61.6073 43.3134L66.7745 60.5841L61.6073 71.8816L49.1391 70.5841L36.675 57.4547L31.5078 40.1841L36.675 28.8906L49.1391 30.1881Z" stroke="white" stroke-miterlimit="10" stroke-linecap="round" stroke-linejoin="round"/>
<path d="M119.713 152.535L132.181 165.664L137.345 182.931L132.181 194.228L119.713 192.931L107.245 179.801L102.082 162.531L107.245 151.237L119.713 152.535Z" stroke="white" stroke-miterlimit="10" stroke-linecap="round" stroke-linejoin="round"/>
<path d="M79.143 61.771L61.6094 71.869L66.7644 60.5959L76.8098 54.7656" stroke="white" stroke-miterlimit="10" stroke-linecap="round" stroke-linejoin="round"/>
<path d="M137.493 182.935L158.419 170.715L153.26 182.078L132.379 194.151L137.493 182.935Z" stroke="white" stroke-miterlimit="10" stroke-linecap="round" stroke-linejoin="round"/>
<path d="M76.9888 54.6681L66.7805 60.5923L61.6133 43.3216L82.7586 31.0449L86.0284 42.1017" stroke="white" stroke-miterlimit="10" stroke-linecap="round" stroke-linejoin="round"/>
<path d="M86.0163 42.0649L75.4375 48.1849L101.644 63.2361L101.73 58.7113L108.839 54.6517L86.0163 42.0649Z" stroke="white" stroke-miterlimit="10" stroke-linecap="round" stroke-linejoin="round"/>
<path d="M105.202 66.3205L101.664 59.4579L101.643 63.236L75.4609 48.1318L76.9594 55.076V59.9761L94.7834 72.6241" stroke="white" stroke-miterlimit="10" stroke-linecap="round" stroke-linejoin="round"/>
<path d="M132.184 165.668L153.333 153.392L158.451 170.699L137.485 183.118L132.184 165.668Z" stroke="white" stroke-miterlimit="10" stroke-linecap="round" stroke-linejoin="round"/>
<path d="M49.1367 30.1755L70.2984 17.9478L82.7787 31.0772L61.6171 43.3213L49.1367 30.1755Z" stroke="white" stroke-miterlimit="10" stroke-linecap="round" stroke-linejoin="round"/>
<path d="M119.707 152.523L140.873 140.295L153.349 153.428L132.187 165.668L119.707 152.523Z" stroke="white" stroke-miterlimit="10" stroke-linecap="round" stroke-linejoin="round"/>
<path d="M49.1319 30.184L70.2976 17.9358L57.8254 16.6343L36.6719 28.8906L49.1319 30.184Z" stroke="white" stroke-miterlimit="10" stroke-linecap="round" stroke-linejoin="round"/>
<path d="M123.55 141.792L107.246 151.238L119.71 152.531L140.872 140.283L134.69 139.536" stroke="white" stroke-miterlimit="10" stroke-linecap="round" stroke-linejoin="round"/>
<path d="M135.087 139.042L126.198 146.399L115.957 128.52L122.606 131.262L122.374 113.644L131.56 108.442V137.002L135.087 139.042Z" stroke="white" stroke-miterlimit="10" stroke-linecap="round" stroke-linejoin="round"/>
<path d="M131.56 137.002L140.278 131.976V103.273L131.52 108.344L131.56 137.002Z" stroke="white" stroke-miterlimit="10" stroke-linecap="round" stroke-linejoin="round"/>
<path d="M116.008 60.0658L137.3 48.144L161.984 90.984L140.618 103.11L116.008 60.0658Z" stroke="white" stroke-miterlimit="10" stroke-linecap="round" stroke-linejoin="round"/>
<path d="M91.5 74.6923L116.139 60.3838L140.823 103.224L116.159 117.463L91.5 74.6923Z" stroke="white" stroke-miterlimit="10" stroke-linecap="round" stroke-linejoin="round"/>
<path d="M31.5078 146.064L66.7745 166.464L87.9321 154.146L87.8466 113.701L73.827 105.586V82.1997L78.0821 79.7517L70.3008 66.4509L79.2345 62.0567L94.9846 72.6239L91.5031 74.6313L115.487 117.463L121.692 114.995L121.493 124.983L115.788 128.495L123.195 141.984L107.245 151.237L102.082 162.412L107.245 181.719L119.668 192.906L132.185 194.037L153.351 183.91L158.75 170.715L153.351 153.392L142.149 141.029L135.345 139.189L144.592 134.342L140.28 131.417L140.871 103.452L161.984 90.9839L137.345 48.1725L116.142 59.5189L112.661 54.2925L109.533 55.5613L85.8269 41.8444L82.7811 31.0446L70.3008 17.9438L57.8815 16.6504L36.6832 28.8945L31.5078 40.1879L36.675 57.4422L49.1391 70.5839L53.5612 71.2653L49.4812 75.4554L53.2511 78.3359L52.4367 92.6159L31.8987 105.223L31.5078 146.064Z" stroke="white" stroke-miterlimit="10" stroke-linecap="round" stroke-linejoin="round"/>
<path d="M30.5079 146.054C30.5044 146.415 30.6951 146.749 31.0071 146.93L66.2738 167.33C66.5844 167.509 66.9675 167.509 67.2776 167.328L88.4352 155.011C88.7435 154.831 88.9328 154.501 88.9321 154.144L88.8465 113.699C88.8458 113.343 88.6557 113.014 88.3475 112.836L74.827 105.01V82.778L78.5808 80.6185C78.8118 80.4856 78.9802 80.266 79.0486 80.0085C79.117 79.7509 79.0799 79.4767 78.9453 79.2467L71.7067 66.8737L79.1573 63.2091L93.094 72.5597L91.0036 73.765C90.5294 74.0384 90.3632 74.6422 90.6306 75.1198L114.614 117.952C114.859 118.389 115.39 118.578 115.856 118.392L120.662 116.481L120.504 124.417L115.264 127.644C114.81 127.923 114.655 128.51 114.911 128.977L121.848 141.609L106.743 150.372C106.565 150.476 106.424 150.631 106.337 150.818L101.174 161.993C101.076 162.205 101.055 162.445 101.116 162.671L106.279 181.977C106.329 182.164 106.432 182.333 106.576 182.462L118.999 193.649C119.16 193.794 119.363 193.883 119.578 193.902L132.095 195.032C132.275 195.049 132.455 195.016 132.617 194.939L153.783 184.812C154.007 184.705 154.183 184.518 154.277 184.289L159.676 171.094C159.764 170.879 159.774 170.64 159.705 170.418L154.306 153.094C154.263 152.955 154.19 152.828 154.092 152.72L142.89 140.358C142.762 140.216 142.595 140.114 142.41 140.064L138.07 138.89L145.057 135.228C145.368 135.065 145.571 134.75 145.591 134.399C145.611 134.048 145.445 133.712 145.154 133.515L141.292 130.894L141.859 104.03L162.492 91.845C162.964 91.5664 163.124 90.96 162.85 90.4851L138.211 47.6737C137.942 47.2054 137.349 47.0359 136.873 47.2908L116.471 58.2088L113.493 53.7381C113.23 53.3429 112.725 53.1873 112.285 53.3658L109.611 54.4508L86.6791 41.1822L83.7436 30.7732C83.6994 30.6164 83.6175 30.4728 83.5052 30.3549L71.0248 17.254C70.8608 17.0818 70.6408 16.9738 70.4043 16.9491L57.9851 15.6558C57.7753 15.6339 57.564 15.679 57.3813 15.7845L36.183 28.0285C36.0034 28.1323 35.8605 28.2893 35.7741 28.4779L30.5987 39.7713C30.4975 39.9921 30.4802 40.2421 30.5498 40.4748L35.7171 57.7291C35.762 57.8792 35.8416 58.0167 35.9495 58.1304L48.4136 71.2721C48.5661 71.4329 48.7678 71.5385 48.9868 71.5723L51.4909 71.9581L48.7647 74.7578C48.5548 74.9733 48.4531 75.2719 48.4878 75.5707C48.5225 75.8695 48.6899 76.1369 48.9435 76.2986L51.9624 78.2235L51.6455 92.2851L31.3866 104.364C31.087 104.543 30.9021 104.865 30.8988 105.214L30.5079 146.054Z" stroke="white" stroke-width="2" stroke-miterlimit="10" stroke-linecap="round" stroke-linejoin="round"/>
</svg>
