<svg width="201" height="204" viewBox="0 0 201 204" fill="none" xmlns="http://www.w3.org/2000/svg">
<path d="M173.01 45.451V158.549L144.507 175.032L116.004 158.549V139.699L99.716 149.124L71.2127 132.641V113.791L54.9251 123.216L26.4219 106.692V59.6086L54.9251 43.1254L71.2127 52.5502L99.716 36.0262L116.004 45.451L144.507 28.9678L173.01 45.451Z" fill="#D9D9D9" fill-opacity="0.2" stroke="white" stroke-width="2" stroke-miterlimit="10" stroke-linejoin="round"/>
<path d="M26.4219 59.6089L54.9251 76.088L71.2127 66.6673" stroke="white" stroke-miterlimit="10" stroke-linejoin="round"/>
<path d="M116.002 59.6005L99.7142 69.0213L71.2109 52.5503V132.641" stroke="white" stroke-miterlimit="10" stroke-linejoin="round"/>
<path d="M173.01 45.4512L144.507 61.9548L116.004 45.4512V139.699" stroke="white" stroke-miterlimit="10" stroke-linejoin="round"/>
<path d="M99.7148 69.0215V149.124" stroke="white" stroke-miterlimit="10" stroke-linejoin="round"/>
<path d="M54.9219 76.0879V123.216" stroke="white" stroke-miterlimit="10" stroke-linejoin="round"/>
<path d="M144.508 61.9551V175.032" stroke="white" stroke-miterlimit="10" stroke-linejoin="round"/>
</svg>
