<svg width="201" height="204" viewBox="0 0 201 204" fill="none" xmlns="http://www.w3.org/2000/svg">
<path d="M99.8732 92.869L105.777 92.2651L101.706 81.5959L96.0416 82.1753L83.5856 66.3204V58.7847L75.4418 54.0723V61.6121L62.9859 63.0523L57.3219 55.9246L53.25 61.8814L59.1542 69.3151V85.9411L53.25 86.545L57.3219 97.2142L62.9859 96.6348L75.4418 112.49V120.03L83.5856 124.742V117.202L96.0416 115.762L101.706 122.89L105.777 116.933L99.8732 109.499V92.869ZM91.7294 105.896L79.5015 107.312L67.2736 91.747L67.298 72.9178L79.5259 71.502L91.7538 87.0672L91.7294 105.896Z" stroke="white" stroke-miterlimit="10" stroke-linejoin="round"/>
<path d="M83.5854 11.6729L132.448 39.9391L156.88 82.3384V105.896L169.095 136.517L156.88 143.583V162.429L108.017 190.695L63.2259 165.203V141.229L34.7227 101.184V39.9391L83.5854 11.6729Z" stroke="white" stroke-width="2" stroke-miterlimit="10" stroke-linejoin="round"/>
<path d="M59.1523 25.8062L108.015 54.0724L132.446 96.4718V120.03L144.662 150.65" stroke="white" stroke-miterlimit="10" stroke-linejoin="round"/>
<path d="M156.878 143.583L132.447 157.717V176.562L108.016 162.429V190.695" stroke="white" stroke-miterlimit="10" stroke-linejoin="round"/>
<path d="M132.445 120.03L156.877 105.896" stroke="white" stroke-miterlimit="10" stroke-linejoin="round"/>
<path d="M132.445 96.4715L156.877 82.3384" stroke="white" stroke-miterlimit="10" stroke-linejoin="round"/>
<path d="M108.016 54.0721L132.447 39.939" stroke="white" stroke-miterlimit="10" stroke-linejoin="round"/>
</svg>
