<svg width="201" height="204" viewBox="0 0 201 204" fill="none" xmlns="http://www.w3.org/2000/svg">
<path d="M163.193 167.157L157.085 176.133L148.941 180.825L112.172 137.577L114.33 185.966L102.114 193.065L81.7549 181.274L84.7274 113.873L35.0096 114.811L28.8203 98.8174L39.7452 92.522L81.983 82.9993L85.8268 14.0146L93.9706 9.30225L106.186 16.3606L110.258 94.1254L163.193 167.157Z" stroke="white" stroke-miterlimit="10" stroke-linejoin="round"/>
<path d="M164.02 167.72C164.257 167.372 164.25 166.912 164.003 166.571L111.241 93.7779L107.185 16.3084C107.167 15.9703 106.98 15.6642 106.687 15.4948L94.4709 8.43639C94.1612 8.25742 93.7794 8.25754 93.4698 8.43671L85.326 13.1491C85.0342 13.3179 84.8471 13.6224 84.8284 13.959L81.0265 82.1898L39.5253 91.5465C39.4272 91.5686 39.333 91.6054 39.2459 91.6556L28.321 97.951C27.8937 98.1973 27.7097 98.7184 27.8877 99.1783L34.077 115.172C34.2285 115.564 34.6086 115.819 35.0285 115.811L83.6815 114.893L80.7559 181.23C80.7395 181.602 80.9314 181.953 81.2538 182.14L101.613 193.931C101.924 194.111 102.307 194.11 102.617 193.93L114.833 186.831C115.154 186.644 115.346 186.294 115.329 185.922L113.301 140.449L148.179 181.473C148.492 181.841 149.022 181.933 149.44 181.692L157.584 177C157.715 176.925 157.827 176.821 157.912 176.696L164.02 167.72Z" stroke="white" stroke-width="2" stroke-miterlimit="10" stroke-linejoin="round"/>
<path d="M28.8203 98.8177L81.755 87.0877L81.983 82.9995" stroke="white" stroke-miterlimit="10" stroke-linejoin="round"/>
<path d="M85.8281 14.0146L98.056 21.0812L106.188 16.3606" stroke="white" stroke-miterlimit="10" stroke-linejoin="round"/>
<path d="M163.189 167.158L155.045 171.854L148.938 180.826" stroke="white" stroke-miterlimit="10" stroke-linejoin="round"/>
<path d="M98.0547 21.0811L102.114 98.8295L155.049 171.853" stroke="white" stroke-miterlimit="10" stroke-linejoin="round"/>
<path d="M102.113 98.8297L110.257 94.1255" stroke="white" stroke-miterlimit="10" stroke-linejoin="round"/>
<path d="M84.7266 113.873L91.9338 113.73L112.171 137.578" stroke="white" stroke-miterlimit="10" stroke-linejoin="round"/>
<path d="M99.1562 122.232L102.112 193.065" stroke="white" stroke-miterlimit="10" stroke-linejoin="round"/>
<path d="M85.7969 96.3165L88.6798 105.203L94.9057 108.818L98.0411 103.395L94.8976 94.656L89.0218 91.2573L85.7969 96.3165Z" stroke="white" stroke-miterlimit="10" stroke-linejoin="round"/>
</svg>
