<svg width="196" height="96" viewBox="0 0 196 96" fill="none" xmlns="http://www.w3.org/2000/svg">
<path d="M162.535 31.3141C161.868 32.3927 161.217 33.5098 160.582 34.6655C159.968 35.7885 158.605 37.529 156.494 39.887L151.327 44.5446C151.244 44.6217 151.202 44.7186 151.202 44.8353L151.198 79.8658C151.198 79.9078 151.177 79.9288 151.136 79.9288L148.917 79.9218C148.866 79.9195 148.84 79.8926 148.84 79.8413V44.7793C148.84 44.6672 148.796 44.5773 148.708 44.5096C146.919 43.1158 145.217 41.5784 143.601 39.8975C141.138 37.3037 139.117 34.4063 137.538 31.2055C135.152 25.5778 135.316 19.7365 137.912 14.2944C138.709 12.6227 139.639 11.0457 140.702 9.56316C141.646 8.24174 142.653 6.99853 143.723 5.83353C145.339 4.07552 147.252 2.2218 149.461 0.272354C149.864 -0.0848502 150.219 -0.090688 150.529 0.254843C150.638 0.373911 150.755 0.487142 150.881 0.594537C153.832 3.07395 156.487 5.83586 158.845 8.88027C159.385 9.57717 159.853 10.3686 160.345 11.1005C162.01 13.594 163.188 16.4306 163.878 19.6104C164.478 22.3793 164.35 25.2066 163.495 28.0922C163.183 29.1452 162.863 30.2191 162.535 31.3141Z" fill="white"/>
<path d="M183.672 39.807C178.289 42.0763 173.063 44.7752 167.996 47.9037C166.461 48.8515 164.856 50.0072 163.182 51.3706C160.64 53.4392 158.528 56.145 156.844 59.4883C155.951 56.005 155.463 52.3804 155.379 48.6146C155.311 45.5025 155.682 42.5935 156.492 39.8876C158.603 37.5296 159.966 35.7891 160.58 34.6661C161.215 33.5104 161.866 32.3933 162.533 31.3147C162.94 30.9598 163.338 30.6236 163.726 30.3061C166.375 28.1512 169.142 26.2975 172.028 24.7449C176.079 22.5644 180.129 20.6009 184.178 18.8546C184.294 18.8055 184.366 18.8441 184.394 18.9701C185.324 23.413 185.654 27.8384 185.381 32.2462C185.211 35.0618 184.44 37.2436 183.672 39.807Z" fill="#7DA068"/>
<path d="M137.536 31.2063C139.115 34.4072 141.135 37.3045 143.598 39.8983C144.726 44.0867 144.97 48.4934 144.331 53.1184C143.933 56.004 143.561 58.1612 143.214 59.59C142.798 58.8383 142.43 58.1566 142.109 57.5449C140.403 54.3055 137.257 51.4514 134.278 49.3887C130.713 46.9163 126.972 44.7404 123.056 42.861C120.767 41.7614 118.508 40.7166 116.278 39.7267C114.955 35.7811 114.365 31.9289 114.51 28.1701C114.605 25.6627 114.975 22.6288 115.619 19.0684C115.642 18.9377 115.718 18.8921 115.846 18.9318C116.315 19.0789 116.763 19.247 117.189 19.4361C121.281 21.2572 125.193 23.2043 128.923 25.2775C131.951 26.9607 134.822 28.937 137.536 31.2063Z" fill="#F5AE2E"/>
<path d="M116.277 39.7261C118.507 40.716 120.766 41.7608 123.054 42.8604C126.97 44.7398 130.711 46.9157 134.276 49.3881C137.255 51.4508 140.401 54.3049 142.107 57.5443C142.428 58.1559 142.797 58.8377 143.213 59.5894C144.208 62.391 144.705 65.2101 144.702 68.0468C144.699 72.018 144.047 75.9088 143.44 79.845C143.436 79.8665 143.428 79.8869 143.416 79.9049C143.404 79.9228 143.388 79.9379 143.37 79.9489C143.352 79.96 143.331 79.9668 143.31 79.9688C143.289 79.9708 143.268 79.968 143.248 79.9606C139.374 78.5317 135.649 76.9162 132.075 75.1138C129.049 73.5869 126.309 71.8581 123.853 69.9273C119.517 66.5199 116.402 62.1144 115.237 56.6653C114.037 51.0691 114.606 45.3678 115.638 39.6771C115.661 39.551 115.732 39.5113 115.851 39.558L116.277 39.7261Z" fill="#0F7778"/>
<path d="M156.842 59.4886C158.526 56.1453 160.638 53.4395 163.18 51.371C164.854 50.0075 166.459 48.8518 167.994 47.904C173.061 44.7755 178.287 42.0766 183.67 39.8074C183.863 39.5972 184.028 39.4945 184.166 39.4992C184.289 39.5038 184.375 39.6194 184.424 39.8459C185.282 43.9666 185.615 48.0429 185.425 52.0749C185.171 57.4539 183.479 62.0532 180.349 65.8727C179.308 67.1475 178.118 68.3358 176.781 69.4378C174.234 71.5366 171.323 73.4114 168.046 75.062C164.544 76.827 160.803 78.4543 156.824 79.9438C156.805 79.9513 156.784 79.9545 156.764 79.9532C156.743 79.9519 156.723 79.946 156.704 79.936C156.686 79.926 156.67 79.9121 156.658 79.8953C156.645 79.8785 156.637 79.8592 156.633 79.8387C155.791 75.8931 155.366 71.818 155.359 67.6132C155.355 64.8957 155.849 62.1875 156.842 59.4886Z" fill="#A81F33"/>
<path d="M64.0342 44.7157C64.0342 44.7445 64.0456 44.7721 64.0659 44.7925C64.0861 44.8129 64.1137 44.8243 64.1423 44.8243L71.1433 44.8208C71.2828 44.8208 71.3538 44.7507 71.3561 44.6107C71.3863 43.0581 71.3805 41.5453 71.3386 40.0721C71.2968 38.4156 71.7328 36.6961 73.1176 35.7891C74.3351 34.9942 76.271 35.3444 77.6838 35.2848C77.8326 35.2778 77.907 35.3491 77.907 35.4985L77.9001 44.6947C77.9001 44.7291 77.9137 44.762 77.9379 44.7863C77.9621 44.8106 77.9949 44.8243 78.0291 44.8243L83.3208 44.8208C83.3606 44.8208 83.3988 44.8049 83.4269 44.7767C83.455 44.7484 83.4708 44.7101 83.4708 44.6702C83.4731 40.4118 83.4697 35.4424 83.4604 29.7622C83.4604 28.8844 83.6313 28.1454 83.9731 27.5454C85.2603 25.2761 87.6288 25.952 89.7985 25.8329C89.8299 25.831 89.8613 25.8357 89.8909 25.8466C89.9204 25.8575 89.9475 25.8745 89.9704 25.8965C89.9932 25.9185 90.0114 25.945 90.0239 25.9744C90.0363 26.0038 90.0427 26.0355 90.0427 26.0676C90.0311 32.9175 90.0311 39.3028 90.0427 45.2235C90.0462 48.0531 88.5986 51.3345 85.3824 51.3345C71.0503 51.3439 57.2018 51.3439 43.8371 51.3345C43.7604 51.3345 43.722 51.296 43.722 51.2189C43.7011 44.292 43.6546 37.2495 43.5825 30.0914C43.565 28.5225 44.0429 26.9151 45.4836 26.2077C46.7184 25.6018 48.5114 25.9065 49.9137 25.8365C49.9402 25.835 49.9667 25.839 49.9917 25.8483C50.0166 25.8575 50.0394 25.8717 50.0586 25.89C50.0779 25.9084 50.0932 25.9305 50.1037 25.955C50.1142 25.9795 50.1195 26.0059 50.1195 26.0326V44.6247C50.1195 44.7554 50.1846 44.8208 50.3148 44.8208L57.2739 44.8173C57.4251 44.8173 57.5007 44.7414 57.5007 44.5897C57.4914 42.9344 57.4879 41.3176 57.4902 39.7394C57.4937 37.4841 58.6483 35.2253 61.1529 35.2883C62.0412 35.3117 62.9377 35.3105 63.8423 35.2848C63.9772 35.2825 64.0447 35.3479 64.0447 35.481L64.0342 44.7157Z" fill="white"/>
<path d="M99.9692 49.5944C98.7622 51.8847 96.146 51.2719 94.0845 51.3489C93.9333 51.3536 93.8577 51.28 93.8577 51.1283C93.874 44.0846 93.8694 37.0386 93.8438 29.9902C93.8415 29.1591 93.9577 28.4622 94.1926 27.8995C95.3123 25.2135 97.953 25.9559 100.21 25.8403C100.352 25.8333 100.423 25.8999 100.423 26.04C100.43 33.6113 100.427 40.92 100.416 47.966C100.416 48.4773 100.206 49.1462 99.9692 49.5944Z" fill="white"/>
<path d="M20.5987 54.4379C19.8487 56.0068 18.4638 57.3761 16.9604 58.4722C16.8511 58.5516 16.7302 58.5913 16.5976 58.5913L8.60948 58.5878C8.35367 58.5878 8.33042 58.5154 8.53971 58.3707C9.84897 57.4695 11.1036 56.4947 12.3036 55.4465C12.7012 55.101 13.0384 54.7531 13.3151 54.4029C14.1244 53.3838 15.0558 52.3682 15.0523 50.9674C15.043 47.1829 15.0442 43.4066 15.0558 39.6384C15.0628 36.9944 16.8418 35.1104 19.4719 35.289C20.1859 35.3357 20.8917 35.3298 21.5893 35.2715C21.6213 35.2685 21.6535 35.2723 21.6839 35.2826C21.7143 35.2929 21.7422 35.3095 21.7658 35.3313C21.7895 35.353 21.8083 35.3795 21.8212 35.409C21.834 35.4385 21.8406 35.4704 21.8405 35.5026C21.8823 41.2529 21.8695 45.9397 21.8021 49.5631C21.7719 51.1904 21.3707 52.8153 20.5987 54.4379Z" fill="white"/>
<path d="M34.3167 44.8318C34.4004 44.8318 34.4423 44.7898 34.4423 44.7058L34.4458 41.8306C34.4458 41.7987 34.4338 41.7681 34.4123 41.7452C34.3908 41.7223 34.3615 41.709 34.3306 41.7081C32.7586 41.6777 31.1703 41.6801 29.5657 41.7151C27.9355 41.7501 26.853 41.6894 26.3181 41.533C23.8484 40.8045 24.1763 37.5722 24.2147 35.4815C24.217 35.3578 24.2786 35.2959 24.3995 35.2959L40.8572 35.2994C41.0083 35.2994 41.0828 35.3741 41.0804 35.5235C41.0618 38.9158 41.0665 42.6162 41.0944 46.6249C41.1153 49.8117 39.6084 51.3876 36.4271 51.3526C33.5737 51.3199 30.7203 51.3199 27.8669 51.3526C25.4146 51.3806 24.0751 49.5105 24.1972 47.1992C24.2368 46.4498 24.2437 45.7237 24.2182 45.021C24.2172 44.9986 24.2207 44.9763 24.2285 44.9553C24.2363 44.9343 24.2482 44.9151 24.2634 44.8988C24.2787 44.8825 24.2971 44.8694 24.3175 44.8603C24.3378 44.8512 24.3598 44.8463 24.3821 44.8459L34.3167 44.8318Z" fill="white"/>
<path d="M57.1682 60.1148C59.0215 60.1148 60.5239 58.6065 60.5239 56.7459C60.5239 54.8853 59.0215 53.377 57.1682 53.377C55.3149 53.377 53.8125 54.8853 53.8125 56.7459C53.8125 58.6065 55.3149 60.1148 57.1682 60.1148Z" fill="white"/>
<path d="M64.3132 60.1107C66.1645 60.1107 67.6654 58.604 67.6654 56.7453C67.6654 54.8866 66.1645 53.3799 64.3132 53.3799C62.4618 53.3799 60.9609 54.8866 60.9609 56.7453C60.9609 58.604 62.4618 60.1107 64.3132 60.1107Z" fill="white"/>
<path d="M74.9034 60.1076C76.7529 60.1076 78.2522 58.6024 78.2522 56.7457C78.2522 54.889 76.7529 53.3838 74.9034 53.3838C73.054 53.3838 71.5547 54.889 71.5547 56.7457C71.5547 58.6024 73.054 60.1076 74.9034 60.1076Z" fill="white"/>
<path d="M91.0655 67.3533L93.8596 67.3883C93.8807 67.3887 93.9014 67.3941 93.92 67.4042C93.9386 67.4142 93.9545 67.4286 93.9664 67.4461C93.9784 67.4635 93.986 67.4836 93.9886 67.5046C93.9913 67.5257 93.9889 67.547 93.9817 67.5669L92.1085 72.8724C92.0997 72.8989 92.0829 72.922 92.0603 72.9383C92.0378 72.9546 92.0107 72.9634 91.9829 72.9635L91.4527 72.9565C91.4316 72.9561 91.4109 72.9507 91.3923 72.9406C91.3737 72.9306 91.3578 72.9162 91.3458 72.8987C91.3339 72.8813 91.3263 72.8612 91.3236 72.8402C91.321 72.8191 91.3234 72.7978 91.3306 72.7779L92.9317 68.2113C92.939 68.1911 92.9414 68.1694 92.9385 68.1481C92.9357 68.1268 92.9278 68.1066 92.9154 68.089C92.9031 68.0715 92.8867 68.0572 92.8677 68.0474C92.8486 68.0376 92.8275 68.0325 92.8061 68.0327L90.2876 68.0397C90.2524 68.0397 90.2187 68.0257 90.1939 68.0007C90.169 67.9757 90.155 67.9419 90.155 67.9066L90.1446 65.8194C90.1441 65.8019 90.1471 65.7845 90.1533 65.7682C90.1596 65.7519 90.1689 65.737 90.1809 65.7243C90.1929 65.7116 90.2073 65.7014 90.2232 65.6943C90.2391 65.6872 90.2562 65.6833 90.2736 65.6828L90.7969 65.6758C90.8146 65.6754 90.8322 65.6785 90.8487 65.6849C90.8652 65.6914 90.8802 65.7011 90.8929 65.7135C90.9056 65.7259 90.9156 65.7408 90.9225 65.7572C90.9294 65.7735 90.9329 65.7911 90.9329 65.8089L90.9364 67.2202C90.9364 67.2549 90.9499 67.2882 90.974 67.3131C90.9981 67.338 91.0309 67.3524 91.0655 67.3533Z" fill="white"/>
<path d="M15.2784 66.7471H15.1249C15.0343 66.7471 14.9609 66.8208 14.9609 66.9117V72.788C14.9609 72.8789 15.0343 72.9526 15.1249 72.9526H15.2784C15.3689 72.9526 15.4423 72.8789 15.4423 72.788V66.9117C15.4423 66.8208 15.3689 66.7471 15.2784 66.7471Z" fill="white"/>
<path d="M12.6755 71.38H10.0802C9.95233 71.38 9.86512 71.4395 9.81861 71.5586L9.35816 72.7703C9.33983 72.8186 9.30735 72.8602 9.265 72.8896C9.22265 72.9189 9.17243 72.9348 9.12096 72.9349L8.77911 72.9384C8.75408 72.939 8.72931 72.9332 8.70716 72.9215C8.68501 72.9098 8.66622 72.8926 8.65258 72.8715C8.63893 72.8505 8.6309 72.8262 8.62923 72.8011C8.62757 72.7761 8.63233 72.751 8.64306 72.7283C9.27095 71.3859 9.89768 69.9208 10.5232 68.3333C10.6697 67.9644 10.85 67.6212 11.0639 67.3037C11.1027 67.2474 11.1557 67.2026 11.2175 67.1737C11.2793 67.1448 11.3476 67.133 11.4154 67.1394C11.4833 67.1458 11.5482 67.1703 11.6035 67.2102C11.6588 67.2502 11.7026 67.3042 11.7302 67.3667L14.022 72.7248C14.0871 72.8765 14.0371 72.9512 13.872 72.9489L13.6557 72.9454C13.5092 72.9431 13.4092 72.873 13.3557 72.7353L12.8988 71.5341C12.8592 71.4314 12.7848 71.38 12.6755 71.38ZM11.4441 68.0636C11.4362 68.0439 11.4226 68.027 11.4051 68.015C11.3877 68.003 11.3671 67.9964 11.3459 67.996C11.3247 67.9956 11.3039 68.0015 11.286 68.0129C11.2681 68.0243 11.254 68.0407 11.2453 68.0601L10.1221 70.7426C10.1153 70.759 10.1125 70.7768 10.1141 70.7944C10.1157 70.8121 10.1215 70.8291 10.1312 70.8439C10.1408 70.8588 10.1539 70.8711 10.1694 70.8796C10.1848 70.8882 10.2021 70.8929 10.2198 70.8932L12.3999 70.9002C12.4179 70.9005 12.4356 70.8962 12.4515 70.8879C12.4674 70.8795 12.481 70.8673 12.491 70.8524C12.5011 70.8374 12.5072 70.8202 12.509 70.8023C12.5108 70.7844 12.508 70.7663 12.5011 70.7497L11.4441 68.0636Z" fill="white"/>
<path d="M22.4451 69.9028C23.5055 70.5122 23.7322 71.2768 23.1253 72.1966C22.4974 73.1527 20.823 72.9671 19.8044 72.9461C19.651 72.9437 19.5742 72.8667 19.5742 72.7149L19.5777 67.4199C19.5777 67.2775 19.6486 67.2016 19.7905 67.1923C20.7672 67.1222 22.909 66.9927 23.1253 68.3269C23.2299 68.99 23.0078 69.4429 22.459 69.6857C22.3148 69.7511 22.3102 69.8234 22.4451 69.9028ZM20.2021 67.8962V69.4441C20.203 69.4945 20.2236 69.5426 20.2595 69.578C20.2954 69.6134 20.3437 69.6332 20.394 69.6332H21.5207C21.652 69.6331 21.782 69.6089 21.9033 69.5619C22.0245 69.5148 22.1347 69.4459 22.2274 69.359C22.32 69.2721 22.3934 69.169 22.4434 69.0556C22.4933 68.9422 22.5188 68.8207 22.5183 68.6981V68.6281C22.5174 68.3816 22.4119 68.1455 22.2249 67.9716C22.0379 67.7976 21.7847 67.7 21.5207 67.7001H20.394C20.3685 67.7001 20.3432 67.7052 20.3197 67.7151C20.2962 67.725 20.2749 67.7395 20.257 67.7577C20.2392 67.776 20.2251 67.7976 20.2157 67.8214C20.2063 67.8452 20.2016 67.8706 20.2021 67.8962ZM20.2021 70.3056V72.2737C20.2021 72.3127 20.2175 72.3501 20.245 72.3777C20.2725 72.4053 20.3098 72.4208 20.3486 72.4208H21.3951C21.767 72.4208 22.1237 72.3064 22.3867 72.1028C22.6496 71.8992 22.7974 71.6231 22.7974 71.3351V71.2441C22.7974 70.9562 22.6496 70.68 22.3867 70.4764C22.1237 70.2729 21.767 70.1585 21.3951 70.1585H20.3486C20.3098 70.1585 20.2725 70.174 20.245 70.2016C20.2175 70.2291 20.2021 70.2665 20.2021 70.3056Z" fill="white"/>
<path d="M28.0283 71.3809H25.5238C25.4028 71.3809 25.3191 71.4369 25.2726 71.549L24.8087 72.6836C24.7319 72.8681 24.5924 72.9568 24.3901 72.9498L24.2401 72.9463C24.0889 72.9416 24.0436 72.8704 24.104 72.7326L26.4063 67.3746C26.439 67.2978 26.4937 67.2326 26.5634 67.1871C26.6332 67.1417 26.7149 67.1181 26.7983 67.1192C26.8818 67.1203 26.9632 67.1461 27.0325 67.1934C27.1018 67.2407 27.1557 67.3074 27.1877 67.3851C27.7202 68.6995 28.3202 70.0863 28.9876 71.5455C29.183 71.9704 29.3271 72.3918 29.4202 72.8097C29.4527 72.9474 29.3992 73.0023 29.2597 72.9743L29.0992 72.9393C28.9667 72.9089 28.8737 72.8319 28.8202 72.7081L28.3388 71.5875C28.3129 71.5263 28.2696 71.4742 28.2144 71.4374C28.1592 71.4007 28.0945 71.381 28.0283 71.3809ZM25.5412 70.726C25.5336 70.7425 25.5303 70.7607 25.5315 70.7788C25.5327 70.7969 25.5384 70.8145 25.5481 70.8298C25.5579 70.8451 25.5713 70.8578 25.5871 70.8666C25.603 70.8754 25.6208 70.88 25.6389 70.8801L27.833 70.9221C27.8509 70.9224 27.8687 70.9181 27.8846 70.9098C27.9005 70.9014 27.9141 70.8892 27.9241 70.8743C27.9341 70.8593 27.9403 70.8421 27.9421 70.8242C27.9438 70.8062 27.9411 70.7881 27.9342 70.7715L26.8912 68.061C26.8838 68.0402 26.8702 68.0222 26.8524 68.0093C26.8345 67.9965 26.8132 67.9894 26.7912 67.989C26.7692 67.9886 26.7477 67.995 26.7294 68.0072C26.7111 68.0194 26.697 68.037 26.6888 68.0575L25.5412 70.726Z" fill="white"/>
<path d="M31.213 69.4195C31.4502 69.8584 31.6943 69.8631 31.9455 69.4335L33.1803 67.3428C33.2501 67.2237 33.3536 67.1689 33.4908 67.1782L33.8606 67.2027C33.9815 67.2097 34.0059 67.2634 33.9338 67.3638C33.3571 68.1529 32.7618 69.0483 32.1478 70.0499C31.6804 70.8133 31.9211 71.9129 31.8757 72.7709C31.8711 72.876 31.8153 72.9308 31.7083 72.9355L31.4362 72.9425C31.3246 72.9472 31.2653 72.8935 31.2583 72.7814C31.213 71.8814 31.4606 70.7467 30.9583 69.9553C30.4072 69.0868 29.8386 68.2487 29.2526 67.4409C29.1433 67.2914 29.1805 67.2086 29.3642 67.1922L29.5351 67.1782C29.6886 67.1642 29.8211 67.2109 29.9328 67.3183C30.4735 67.8541 30.8502 68.7471 31.213 69.4195Z" fill="white"/>
<path d="M34.7521 71.6014L34.33 72.7641C34.2905 72.8715 34.2126 72.9287 34.0963 72.9357L33.8417 72.9462C33.6766 72.9555 33.6266 72.8831 33.6917 72.729L35.9765 67.399C36.01 67.32 36.0659 67.2527 36.1372 67.2054C36.2085 67.158 36.2922 67.1328 36.3777 67.1328C36.4631 67.1328 36.5468 67.158 36.6181 67.2054C36.6894 67.2527 36.7453 67.32 36.7788 67.399L39.0532 72.7641C39.0997 72.8761 39.0636 72.9345 38.945 72.9392L38.6555 72.9567C38.4997 72.9637 38.3927 72.8948 38.3346 72.7501L37.8567 71.5454C37.8125 71.4333 37.7311 71.3784 37.6125 71.3808H35.0626C34.9068 71.3808 34.8033 71.4543 34.7521 71.6014ZM35.1637 70.7539C35.1568 70.7705 35.1541 70.7886 35.1558 70.8066C35.1576 70.8245 35.1637 70.8417 35.1738 70.8566C35.1838 70.8716 35.1974 70.8838 35.2133 70.8921C35.2292 70.9005 35.2469 70.9047 35.2649 70.9045L37.5044 70.887C37.522 70.8867 37.5393 70.882 37.5548 70.8734C37.5702 70.8648 37.5833 70.8525 37.593 70.8377C37.6026 70.8228 37.6085 70.8058 37.61 70.7882C37.6116 70.7705 37.6089 70.7527 37.602 70.7364L36.4649 68.194C36.4565 68.1744 36.4427 68.1578 36.425 68.146C36.4073 68.1343 36.3866 68.1281 36.3654 68.1281C36.3443 68.1281 36.3236 68.1343 36.3059 68.146C36.2882 68.1578 36.2744 68.1744 36.266 68.194L35.1637 70.7539Z" fill="white"/>
<path d="M39.9219 67.3562C39.9219 67.3116 39.9395 67.2688 39.9709 67.2373C40.0023 67.2058 40.0449 67.1881 40.0893 67.1881L41.9974 67.1846C42.3744 67.1841 42.7479 67.2542 43.0964 67.3911C43.4449 67.5279 43.7616 67.7287 44.0285 67.982C44.2954 68.2354 44.5073 68.5363 44.652 68.8675C44.7966 69.1988 44.8713 69.5539 44.8717 69.9126V70.1998C44.8726 70.9242 44.5709 71.6193 44.0332 72.1322C43.4955 72.6451 42.7657 72.9338 42.0044 72.9349L40.0963 72.9384C40.0519 72.9384 40.0093 72.9207 39.9779 72.8891C39.9465 72.8576 39.9289 72.8148 39.9289 72.7703L39.9219 67.3562ZM40.5567 67.8745L40.5707 72.231C40.5707 72.2774 40.5891 72.3219 40.6218 72.3548C40.6545 72.3876 40.6988 72.4061 40.7451 72.4061L41.8055 72.4026C42.1292 72.4016 42.4495 72.3409 42.7482 72.2239C43.0468 72.107 43.3179 71.9362 43.546 71.7212C43.7741 71.5062 43.9546 71.2513 44.0774 70.971C44.2001 70.6907 44.2626 70.3906 44.2613 70.0877V69.9897C44.2586 69.379 43.997 68.7945 43.534 68.3644C43.0709 67.9343 42.4442 67.6938 41.7916 67.6959L40.7312 67.6994C40.6849 67.6994 40.6405 67.7178 40.6078 67.7507C40.5751 67.7835 40.5567 67.828 40.5567 67.8745Z" fill="white"/>
<path d="M46.6628 70.2879L46.6593 72.3016C46.6593 72.3304 46.6707 72.358 46.6909 72.3783C46.7112 72.3987 46.7387 72.4101 46.7674 72.4101L49.6627 72.4136C49.6772 72.4136 49.6915 72.4166 49.7049 72.4222C49.7182 72.4279 49.7303 72.4362 49.7404 72.4467C49.7505 72.4571 49.7584 72.4695 49.7636 72.4831C49.7688 72.4967 49.7713 72.5112 49.7708 72.5257L49.7569 72.8374C49.7559 72.8656 49.7442 72.8923 49.724 72.9119C49.7038 72.9315 49.6768 72.9425 49.6487 72.9424L46.2058 72.9389C46.1771 72.9389 46.1496 72.9275 46.1293 72.9071C46.1091 72.8868 46.0977 72.8592 46.0977 72.8304V67.2937C46.0977 67.2649 46.1091 67.2373 46.1293 67.217C46.1496 67.1966 46.1771 67.1852 46.2058 67.1852L49.5476 67.1817C49.5729 67.1812 49.5977 67.1897 49.6175 67.2057C49.6372 67.2217 49.6508 67.2442 49.6557 67.2692L49.715 67.5774C49.7181 67.5933 49.7177 67.6097 49.7136 67.6254C49.7096 67.6411 49.7022 67.6557 49.6918 67.6681C49.6814 67.6806 49.6684 67.6905 49.6537 67.6972C49.639 67.7039 49.623 67.7073 49.6069 67.707L46.7709 67.7105C46.7422 67.7105 46.7147 67.7219 46.6944 67.7423C46.6741 67.7626 46.6628 67.7902 46.6628 67.819L46.6593 69.5105C46.6593 69.5393 46.6707 69.5669 46.6909 69.5873C46.7112 69.6076 46.7387 69.619 46.7674 69.619L49.3487 69.6226C49.3751 69.6223 49.4007 69.6318 49.4206 69.6492C49.4406 69.6667 49.4535 69.6908 49.4569 69.7171L49.4987 70.0463C49.5007 70.0614 49.4995 70.0767 49.4951 70.0913C49.4908 70.1059 49.4835 70.1194 49.4736 70.131C49.4637 70.1425 49.4515 70.1519 49.4378 70.1584C49.4241 70.1649 49.4092 70.1685 49.3941 70.1689L46.7709 70.1794C46.7422 70.1794 46.7147 70.1908 46.6944 70.2112C46.6741 70.2315 46.6628 70.2591 46.6628 70.2879Z" fill="white"/>
<path d="M53.223 70.4351L54.6009 72.7149C54.6916 72.8643 54.6497 72.939 54.4753 72.939L54.2311 72.9425C54.0149 72.9449 53.8637 72.8456 53.7777 72.6449C53.4428 71.8768 53.0114 71.1238 52.4835 70.3861C52.4114 70.2834 52.3137 70.232 52.1905 70.232H51.6882C51.6419 70.232 51.5976 70.2504 51.5649 70.2833C51.5321 70.3161 51.5138 70.3607 51.5138 70.4071L51.5173 72.7779C51.5173 72.9017 51.4556 72.9612 51.3324 72.9565L51.0533 72.9495C51.0067 72.9486 50.9624 72.929 50.9297 72.895C50.8971 72.8609 50.8789 72.8151 50.8789 72.7674V67.3639C50.8789 67.2378 50.9417 67.1747 51.0673 67.1747C52.0161 67.1712 54.0114 66.9331 54.4544 68.1343C54.7927 69.0588 54.2416 69.8853 53.3521 70.1164C53.166 70.1655 53.123 70.2717 53.223 70.4351ZM51.5138 67.8506L51.5068 69.5176C51.5068 69.5594 51.5233 69.5995 51.5528 69.629C51.5822 69.6586 51.6221 69.6752 51.6638 69.6752L52.7975 69.6787C52.945 69.6792 53.0912 69.6554 53.2277 69.6085C53.3642 69.5616 53.4883 69.4926 53.593 69.4055C53.6976 69.3183 53.7807 69.2147 53.8375 69.1005C53.8944 68.9864 53.9238 68.8639 53.9242 68.7401V68.6421C53.9249 68.3923 53.8074 68.1525 53.5974 67.9752C53.3874 67.7978 53.1022 67.6976 52.8044 67.6965L51.6707 67.693C51.6291 67.693 51.5892 67.7096 51.5597 67.7392C51.5303 67.7688 51.5138 67.8088 51.5138 67.8506Z" fill="white"/>
<path d="M61.7915 68.0393L60.3578 68.0428C60.2206 68.0428 60.1508 67.974 60.1485 67.8362V67.5946C60.1462 67.4475 60.2183 67.3716 60.3648 67.367C62.0915 67.3284 63.4937 67.1989 63.4519 69.4506C63.431 70.667 63.4321 71.7713 63.4554 72.7635C63.4558 72.7896 63.4511 72.8155 63.4415 72.8397C63.4319 72.8639 63.4176 72.8859 63.3994 72.9045C63.3812 72.9231 63.3595 72.9378 63.3356 72.9479C63.3117 72.958 63.286 72.9632 63.26 72.9632H62.8484C62.674 72.9632 62.5868 72.8756 62.5868 72.7005V68.8378C62.5868 68.626 62.503 68.423 62.3538 68.2732C62.2047 68.1235 62.0024 68.0393 61.7915 68.0393Z" fill="white"/>
<path d="M67.4101 68.0357L65.6416 68.0427C65.5768 68.0427 65.5144 68.0176 65.4676 67.9726C65.4208 67.9275 65.3931 67.8661 65.3904 67.801L65.3869 67.6154C65.3855 67.5828 65.3908 67.5503 65.4024 67.5198C65.4141 67.4892 65.4318 67.4613 65.4547 67.4378C65.4775 67.4142 65.5049 67.3955 65.5352 67.3827C65.5655 67.3699 65.5982 67.3633 65.6311 67.3633L69.0357 67.3668C69.2031 67.3668 69.2857 67.4508 69.2833 67.6189V67.787C69.281 68.0205 69.1682 68.1057 68.945 68.0427C68.8287 68.01 68.7171 68.0135 68.6101 68.0532C68.5241 68.0812 68.481 68.1407 68.481 68.2318V72.7564C68.481 72.8964 68.4113 72.9653 68.2717 72.963H67.8148C67.6985 72.963 67.6404 72.9034 67.6404 72.7844L67.6369 68.2633C67.6369 68.1115 67.5613 68.0357 67.4101 68.0357Z" fill="white"/>
<path d="M72.9397 70.0672C72.5304 69.4252 72.306 69.4847 72.2665 70.2459C72.22 71.1284 72.2083 71.9828 72.2316 72.8093C72.2339 72.912 72.1839 72.9634 72.0816 72.9634H71.6212C71.4909 72.9634 71.4223 72.898 71.4153 72.7673C71.3595 71.6607 71.1328 69.7871 72.1618 69.1567C72.2874 69.0797 72.3095 68.9805 72.2281 68.8591L71.4049 67.6194C71.2909 67.4466 71.3363 67.3602 71.5409 67.3602H71.8653C72.0793 67.3602 72.2409 67.4536 72.3502 67.6404L73.4595 69.5349C73.4774 69.5657 73.5034 69.5909 73.5348 69.6077C73.5661 69.6244 73.6014 69.6322 73.6368 69.63C73.6723 69.6278 73.7064 69.6158 73.7354 69.5953C73.7645 69.5748 73.7873 69.5467 73.8013 69.5139L74.6385 67.6018C74.7036 67.4524 74.8176 67.3754 74.9804 67.3707L75.4687 67.3567C75.6059 67.352 75.6443 67.4116 75.5838 67.5353L74.2653 70.1898C74.2181 70.2874 74.1963 70.3951 74.2017 70.5029C74.2072 70.6107 74.2399 70.7151 74.2967 70.8062L75.5176 72.7743C75.6106 72.9237 75.5699 72.9926 75.3955 72.9809L74.9559 72.9599C74.842 72.9529 74.7536 72.9004 74.6908 72.8023L72.9397 70.0672Z" fill="white"/>
<path d="M78.1127 68.0293L77.5372 68.0468C77.5178 68.0473 77.4985 68.0438 77.4805 68.0366C77.4626 68.0294 77.4462 68.0185 77.4325 68.0048C77.4188 67.991 77.408 67.9746 77.4008 67.9566C77.3937 67.9385 77.3902 67.9192 77.3907 67.8997L77.3942 67.504C77.3942 67.4848 77.398 67.4659 77.4054 67.4482C77.4128 67.4306 77.4236 67.4146 77.4373 67.4012C77.4509 67.3878 77.4671 67.3773 77.4849 67.3703C77.5026 67.3633 77.5216 67.3599 77.5407 67.3604L78.936 67.3709C78.9548 67.3709 78.9734 67.3746 78.9907 67.3818C79.0081 67.389 79.0238 67.3996 79.0371 67.413C79.0504 67.4263 79.0609 67.4421 79.0681 67.4595C79.0753 67.477 79.079 67.4956 79.079 67.5145V70.3581C79.079 70.377 79.0753 70.3956 79.0681 70.4131C79.0609 70.4305 79.0504 70.4463 79.0371 70.4596C79.0238 70.473 79.0081 70.4836 78.9907 70.4908C78.9734 70.498 78.9548 70.5017 78.936 70.5017H78.4092C78.3713 70.5017 78.3349 70.4866 78.3081 70.4596C78.2813 70.4327 78.2662 70.3962 78.2662 70.3581L78.2593 68.1729C78.2593 68.1537 78.2554 68.1347 78.248 68.1171C78.2406 68.0994 78.2298 68.0835 78.2161 68.0701C78.2025 68.0567 78.1863 68.0462 78.1685 68.0392C78.1508 68.0322 78.1318 68.0288 78.1127 68.0293Z" fill="white"/>
<path d="M83.6958 72.0034C83.6865 71.1116 83.6841 70.2197 83.6888 69.3279C83.6958 67.8431 82.5935 68.0462 81.5784 68.0462C81.5109 68.0452 81.4465 68.0178 81.3994 67.9698C81.3523 67.9219 81.3263 67.8574 81.3272 67.7905V67.6119C81.3296 67.4625 81.4051 67.3843 81.554 67.3773C82.9353 67.3002 84.4004 67.3493 84.4946 69.1073C84.5457 70.0295 84.5527 70.9762 84.5155 71.9474C84.5085 72.1038 84.5818 72.1995 84.7353 72.2346C84.9887 72.2906 85.1039 72.454 85.0806 72.7248C85.0667 72.8813 84.9818 72.9595 84.826 72.9595L81.3482 72.963C81.183 72.963 81.0982 72.8801 81.0935 72.7143L81.09 72.5112C81.0854 72.3408 81.1679 72.2556 81.3377 72.2556L83.4446 72.2591C83.612 72.2591 83.6958 72.1739 83.6958 72.0034Z" fill="white"/>
<path d="M97.5127 69.9478C97.1801 69.4155 96.9859 69.4622 96.9301 70.0879C96.8487 71.0148 96.8301 71.9241 96.8743 72.816C96.879 72.907 96.8348 72.9537 96.7418 72.956L96.2359 72.963C96.122 72.9654 96.0639 72.9093 96.0615 72.795C96.0371 71.6883 95.7546 69.8217 96.8255 69.1459C96.9371 69.0758 96.9557 68.9859 96.8813 68.8762L96.0022 67.549C95.9185 67.4229 95.9511 67.361 96.0999 67.3633L96.5046 67.3669C96.6999 67.3669 96.8476 67.4509 96.9476 67.619L98.0464 69.4575C98.0692 69.496 98.1023 69.5273 98.1419 69.548C98.1815 69.5687 98.2261 69.5779 98.2706 69.5746C98.3151 69.5714 98.3578 69.5557 98.394 69.5295C98.4302 69.5033 98.4584 69.4674 98.4754 69.426L99.201 67.6715C99.287 67.4637 99.4417 67.361 99.6649 67.3633H100.16C100.274 67.3633 100.304 67.4147 100.251 67.5174L98.8731 70.1614C98.8202 70.261 98.7949 70.373 98.7998 70.4857C98.8047 70.5984 98.8396 70.7078 98.901 70.8023L100.178 72.7739C100.254 72.8953 100.222 72.9572 100.08 72.9595L99.5882 72.9665C99.5297 72.9676 99.4717 72.9534 99.4198 72.9252C99.3679 72.897 99.3238 72.8558 99.2917 72.8055L97.5127 69.9478Z" fill="white"/>
<path d="M88.3704 69.6144L86.71 69.6231C86.6156 69.6236 86.5395 69.7008 86.54 69.7956L86.5422 70.2229C86.5427 70.3176 86.6196 70.3941 86.714 70.3936L88.3744 70.3848C88.4688 70.3843 88.5449 70.3071 88.5444 70.2123L88.5422 69.7851C88.5417 69.6903 88.4648 69.6139 88.3704 69.6144Z" fill="white"/>
<path d="M18.2758 70.7432H16.8177C16.7156 70.7432 16.6328 70.8263 16.6328 70.9288V71.0268C16.6328 71.1293 16.7156 71.2124 16.8177 71.2124H18.2758C18.3779 71.2124 18.4607 71.1293 18.4607 71.0268V70.9288C18.4607 70.8263 18.3779 70.7432 18.2758 70.7432Z" fill="white"/>
<path d="M57.9332 73.1981C58.4572 73.1981 58.882 72.7716 58.882 72.2455C58.882 71.7194 58.4572 71.293 57.9332 71.293C57.4092 71.293 56.9844 71.7194 56.9844 72.2455C56.9844 72.7716 57.4092 73.1981 57.9332 73.1981Z" fill="white"/>
</svg>
