<svg width="240" height="241" viewBox="0 0 240 241" fill="none" xmlns="http://www.w3.org/2000/svg">
<mask id="path-1-inside-1_0_4805" fill="white">
<path fill-rule="evenodd" clip-rule="evenodd" d="M-12.3681 7.70345C-15.1405 6.37643 -17.8776 5.11562 -20.5796 3.92102L-21.0952 3.71816C-21.2389 3.66181 -21.3248 3.70971 -21.353 3.86185C-22.6039 10.7294 -23.2928 17.6096 -21.839 24.3631C-20.4274 30.939 -16.6535 36.2555 -11.4003 40.3676C-8.42507 42.6977 -5.1047 44.784 -1.43919 46.6266C2.89124 48.8017 7.4034 50.7514 12.0973 52.4756C12.1213 52.4846 12.147 52.488 12.1725 52.4856C12.1929 52.4836 12.2127 52.4781 12.2312 52.4691C12.2417 52.4789 12.2534 52.4874 12.2661 52.4943C12.2882 52.5063 12.3127 52.5134 12.3379 52.5151C12.363 52.5167 12.3883 52.5128 12.4118 52.5037C17.2324 50.7062 21.7643 48.7424 26.0074 46.6124C29.9772 44.6204 33.5046 42.358 36.5898 39.8251C38.2098 38.4953 39.6509 37.0612 40.9131 35.5229C44.7054 30.9135 46.7551 25.3631 47.0622 18.8717C47.2933 14.006 46.889 9.0867 45.8493 4.11389C45.7902 3.8406 45.6859 3.70113 45.5366 3.6955C45.3704 3.68986 45.1703 3.81383 44.9365 4.0674C38.4141 6.80597 32.0832 10.0629 25.944 13.8383C24.0845 14.9822 22.1404 16.3769 20.1119 18.0223C17.0324 20.5185 14.4727 23.784 12.4329 27.8186C12.3626 28.0089 12.2943 28.1993 12.2281 28.3897C12.1719 28.2237 12.1142 28.0578 12.055 27.8919C11.5507 26.9847 11.1041 26.162 10.7153 25.4238C8.64871 21.5146 4.83669 18.0703 1.22753 15.5811C-3.09163 12.5974 -7.6235 9.9715 -12.3681 7.70345ZM-20.5796 97.9835C-17.8776 99.1781 -15.1405 100.439 -12.3681 101.766C-7.6235 104.034 -3.09163 106.66 1.22753 109.644C4.83669 112.133 8.64871 115.577 10.7153 119.486C11.1041 120.225 11.5507 121.047 12.055 121.954C12.1142 122.12 12.1719 122.286 12.2281 122.452C12.2943 122.262 12.3626 122.071 12.4329 121.881C14.4727 117.846 17.0324 114.581 20.1119 112.085C22.1404 110.439 24.0845 109.045 25.944 107.901C32.0832 104.125 38.4141 100.868 44.9365 98.1299C45.1703 97.8763 45.3704 97.7524 45.5366 97.758C45.6859 97.7636 45.7902 97.9031 45.8493 98.1764C46.889 103.149 47.2933 108.068 47.0622 112.934C46.7551 119.426 44.7054 124.976 40.9131 129.585C39.6509 131.124 38.2098 132.558 36.5898 133.888C33.5046 136.421 29.9772 138.683 26.0074 140.675C21.7643 142.805 17.2324 144.769 12.4118 146.566C12.3883 146.575 12.363 146.579 12.3379 146.578C12.3127 146.576 12.2882 146.569 12.2661 146.557C12.2534 146.55 12.2417 146.541 12.2312 146.532C12.2127 146.541 12.1929 146.546 12.1725 146.548C12.147 146.55 12.1213 146.547 12.0973 146.538C7.4034 144.814 2.89124 142.864 -1.43919 140.689C-5.1047 138.846 -8.42507 136.76 -11.4003 134.43C-16.6535 130.318 -20.4274 125.002 -21.839 118.426C-23.2928 111.672 -22.6039 104.792 -21.353 97.9244C-21.3248 97.7722 -21.2389 97.7243 -21.0952 97.7807L-20.5796 97.9835ZM-21.909 52.299C-19.1884 53.5097 -16.4324 54.7874 -13.6409 56.1323C-8.86354 58.4308 -4.30039 61.0919 0.0485668 64.1157C3.68263 66.6384 7.52095 70.129 9.60181 74.0907C9.96341 74.7817 10.3746 75.5457 10.8355 76.3828C12.8809 72.3518 15.4399 69.0845 18.5125 66.581C20.5566 64.9145 22.5155 63.502 24.3893 62.3434C30.5755 58.5196 36.9548 55.2209 43.5271 52.4472C43.7627 52.1904 43.9643 52.0648 44.1318 52.0705C44.2823 52.0762 44.3873 52.2175 44.447 52.4943C45.4946 57.5309 45.9019 62.5132 45.6691 67.4414C45.3597 74.0161 43.2943 79.6377 39.473 84.3062C38.2011 85.8642 36.7489 87.3167 35.1165 88.6636C32.0078 91.229 28.4533 93.5204 24.4532 95.5379C20.3187 97.624 15.9122 99.5527 11.2336 101.324C11.2315 101.337 11.2294 101.351 11.2273 101.365C11.2231 101.391 11.2133 101.416 11.1985 101.438C11.1838 101.46 11.1646 101.478 11.1422 101.492C11.1198 101.505 11.0948 101.513 11.0691 101.516C11.0434 101.518 11.0175 101.515 10.9933 101.506C10.9526 101.491 10.9119 101.476 10.8712 101.461C10.8319 101.475 10.7927 101.49 10.7535 101.505C10.7298 101.514 10.7044 101.518 10.679 101.516C10.6537 101.515 10.629 101.507 10.6067 101.495C10.5844 101.483 10.565 101.466 10.5499 101.446C10.5348 101.425 10.5243 101.401 10.5192 101.376C10.5156 101.359 10.512 101.342 10.5084 101.326C5.95611 99.6228 1.57445 97.7071 -2.63655 95.5782C-6.32735 93.7109 -9.67064 91.5965 -12.6664 89.2352C-17.9558 85.0679 -21.7558 79.6799 -23.1771 73.0157C-24.6409 66.1715 -23.9473 59.1989 -22.6877 52.2391C-22.6594 52.0849 -22.5728 52.0364 -22.4282 52.0935L-21.909 52.299Z"/>
</mask>
<path d="M-20.5796 3.92102L-20.1752 3.00642L-20.1942 2.99804L-20.2134 2.99045L-20.5796 3.92102ZM-12.3681 7.70345L-12.7998 8.60545L-12.7994 8.60567L-12.3681 7.70345ZM-21.0952 3.71816L-20.729 2.78759L-20.7301 2.78718L-21.0952 3.71816ZM-21.353 3.86185L-22.3363 3.67976L-22.3368 3.68265L-21.353 3.86185ZM-21.839 24.3631L-20.8613 24.1532L-20.8614 24.1526L-21.839 24.3631ZM-11.4003 40.3676L-10.7837 39.5803L-10.7839 39.5802L-11.4003 40.3676ZM-1.43919 46.6266L-1.88832 47.5201L-1.88803 47.5202L-1.43919 46.6266ZM12.0973 52.4756L12.4467 51.5387L12.4421 51.537L12.0973 52.4756ZM12.1725 52.4856L12.2669 53.4811L12.267 53.4811L12.1725 52.4856ZM12.2312 52.4691L12.9116 51.7364L12.4112 51.2717L11.7963 51.5687L12.2312 52.4691ZM12.2661 52.4943L12.745 51.6164L12.7448 51.6163L12.2661 52.4943ZM12.3379 52.5151L12.4025 51.5172L12.4024 51.5171L12.3379 52.5151ZM12.4118 52.5037L12.0623 51.5666L12.05 51.5714L12.4118 52.5037ZM26.0074 46.6124L25.5589 45.7186L25.5587 45.7187L26.0074 46.6124ZM36.5898 39.8251L35.9553 39.0522L35.9552 39.0522L36.5898 39.8251ZM40.9131 35.5229L40.1409 34.8875L40.1401 34.8886L40.9131 35.5229ZM47.0622 18.8717L46.0634 18.8243L46.0633 18.8245L47.0622 18.8717ZM45.8493 4.11389L46.8282 3.90924L46.8267 3.9023L45.8493 4.11389ZM45.5366 3.6955L45.5743 2.6962L45.5705 2.69607L45.5366 3.6955ZM44.9365 4.0674L45.3236 4.98943L45.5241 4.90523L45.6716 4.74534L44.9365 4.0674ZM25.944 13.8383L25.4202 12.9865L25.42 12.9866L25.944 13.8383ZM20.1119 18.0223L20.7416 18.7991L20.7418 18.7989L20.1119 18.0223ZM12.4329 27.8186L11.5405 27.3674L11.5147 27.4184L11.4948 27.4721L12.4329 27.8186ZM12.2281 28.3897L11.2811 28.7107L12.2163 31.47L13.1727 28.718L12.2281 28.3897ZM12.055 27.8919L12.9969 27.556L12.9692 27.4782L12.929 27.4061L12.055 27.8919ZM10.7153 25.4238L11.6001 24.9578L11.5994 24.9565L10.7153 25.4238ZM1.22753 15.5811L0.659161 16.4038L0.659779 16.4043L1.22753 15.5811ZM-12.3681 101.766L-12.7998 102.668L-12.7994 102.668L-12.3681 101.766ZM-20.5796 97.9835L-20.1752 97.0689L-20.1942 97.0605L-20.2134 97.053L-20.5796 97.9835ZM1.22753 109.644L0.659161 110.466L0.659777 110.467L1.22753 109.644ZM10.7153 119.486L11.6001 119.02L11.5994 119.019L10.7153 119.486ZM12.055 121.954L12.9969 121.618L12.9692 121.541L12.929 121.469L12.055 121.954ZM12.2281 122.452L11.2811 122.773L12.2162 125.533L13.1727 122.781L12.2281 122.452ZM12.4329 121.881L11.5405 121.43L11.5147 121.481L11.4948 121.535L12.4329 121.881ZM20.1119 112.085L20.7416 112.862L20.7418 112.861L20.1119 112.085ZM25.944 107.901L25.4202 107.049L25.42 107.049L25.944 107.901ZM44.9365 98.1299L45.3236 99.0519L45.5241 98.9677L45.6716 98.8078L44.9365 98.1299ZM45.5366 97.758L45.5743 96.7587L45.5704 96.7586L45.5366 97.758ZM45.8493 98.1764L46.8282 97.9717L46.8267 97.9648L45.8493 98.1764ZM47.0622 112.934L46.0634 112.887L46.0633 112.887L47.0622 112.934ZM40.9131 129.585L40.1409 128.95L40.1401 128.951L40.9131 129.585ZM36.5898 133.888L35.9553 133.115L35.9552 133.115L36.5898 133.888ZM26.0074 140.675L25.5589 139.781L25.5587 139.781L26.0074 140.675ZM12.4118 146.566L12.0623 145.629L12.0504 145.634L12.4118 146.566ZM12.3379 146.578L12.2731 147.575H12.2731L12.3379 146.578ZM12.2661 146.557L11.7865 147.434L11.7873 147.435L12.2661 146.557ZM12.2312 146.532L12.9115 145.799L12.4112 145.334L11.7965 145.631L12.2312 146.532ZM12.1725 146.548L12.267 147.544L12.2674 147.544L12.1725 146.548ZM12.0973 146.538L12.447 145.601L12.4421 145.599L12.0973 146.538ZM-1.43919 140.689L-1.88832 141.583L-1.88803 141.583L-1.43919 140.689ZM-11.4003 134.43L-10.7837 133.643L-10.7839 133.643L-11.4003 134.43ZM-21.839 118.426L-20.8613 118.216L-20.8614 118.215L-21.839 118.426ZM-21.353 97.9244L-22.3363 97.7423L-22.3368 97.7451L-21.353 97.9244ZM-21.0952 97.7807L-20.729 96.8501L-20.7301 96.8497L-21.0952 97.7807ZM-13.6409 56.1323L-14.0749 57.0332L-14.0744 57.0334L-13.6409 56.1323ZM-21.909 52.299L-21.5024 51.3854L-21.5215 51.377L-21.5408 51.3693L-21.909 52.299ZM0.0485668 64.1157L-0.522295 64.9368L-0.521677 64.9372L0.0485668 64.1157ZM9.60181 74.0907L10.4878 73.627L10.4871 73.6257L9.60181 74.0907ZM10.8355 76.3828L9.95942 76.8651L10.8714 78.5219L11.7272 76.8353L10.8355 76.3828ZM18.5125 66.581L19.1442 67.3563L19.1444 67.3561L18.5125 66.581ZM24.3893 62.3434L23.8635 61.4928L23.8634 61.4929L24.3893 62.3434ZM43.5271 52.4472L43.9159 53.3685L44.1167 53.2838L44.2639 53.1232L43.5271 52.4472ZM44.1318 52.0705L44.1697 51.0712L44.1659 51.0711L44.1318 52.0705ZM44.447 52.4943L45.426 52.2906L45.4245 52.2837L44.447 52.4943ZM45.6691 67.4414L44.6703 67.3942L44.6702 67.3944L45.6691 67.4414ZM39.473 84.3062L38.6992 83.6728L38.6983 83.6738L39.473 84.3062ZM35.1165 88.6636L34.4801 87.8923L34.48 87.8923L35.1165 88.6636ZM24.4532 95.5379L24.0028 94.645L24.0027 94.6451L24.4532 95.5379ZM11.2336 101.324L10.8795 100.389L10.334 100.595L10.2452 101.172L11.2336 101.324ZM11.2273 101.365L12.2145 101.524L12.2157 101.517L11.2273 101.365ZM11.1985 101.438L12.0293 101.994L12.0294 101.994L11.1985 101.438ZM11.1422 101.492L11.659 102.348L11.6592 102.348L11.1422 101.492ZM11.0691 101.516L10.9741 100.52L10.9738 100.52L11.0691 101.516ZM10.9933 101.506L11.3448 100.57L11.3401 100.568L10.9933 101.506ZM10.8712 101.461L11.2188 100.523L10.8688 100.393L10.5194 100.525L10.8712 101.461ZM10.7535 101.505L10.4025 100.568L10.39 100.573L10.7535 101.505ZM10.679 101.516L10.7439 100.518H10.7439L10.679 101.516ZM10.6067 101.495L11.0875 100.618L11.0873 100.618L10.6067 101.495ZM10.5192 101.376L11.4992 101.177L11.4973 101.168L10.5192 101.376ZM10.5084 101.326L11.4866 101.118L11.3727 100.581L10.8588 100.389L10.5084 101.326ZM-2.63655 95.5782L-3.08801 96.4705L-3.08771 96.4707L-2.63655 95.5782ZM-12.6664 89.2352L-12.0474 88.4498L-12.0475 88.4497L-12.6664 89.2352ZM-23.1771 73.0157L-22.1991 72.8071L-22.1992 72.8065L-23.1771 73.0157ZM-22.6877 52.2391L-23.6712 52.0581L-23.6717 52.061L-22.6877 52.2391ZM-22.4282 52.0935L-22.06 51.1637L-22.061 51.1633L-22.4282 52.0935ZM-20.9839 4.83561C-18.2916 6.02599 -15.5635 7.28259 -12.7998 8.60545L-11.9364 6.80146C-14.7174 5.47027 -17.4637 4.20524 -20.1752 3.00642L-20.9839 4.83561ZM-21.4613 4.64872L-20.9457 4.85158L-20.2134 2.99045L-20.729 2.78759L-21.4613 4.64872ZM-20.3697 4.04394C-20.3788 4.09315 -20.4442 4.39781 -20.7805 4.58529C-21.1178 4.77329 -21.4123 4.66794 -21.4603 4.64913L-20.7301 2.78718C-20.9217 2.71202 -21.3311 2.60245 -21.7543 2.83835C-22.1765 3.07373 -22.299 3.47841 -22.3363 3.67976L-20.3697 4.04394ZM-20.8614 24.1526C-22.2733 17.5939 -21.613 10.8698 -20.3692 4.04106L-22.3368 3.68265C-23.5948 10.589 -24.3123 17.6253 -22.8166 24.5735L-20.8614 24.1526ZM-10.7839 39.5802C-15.8863 35.5861 -19.5071 30.4618 -20.8613 24.1532L-22.8167 24.5729C-21.3478 31.4162 -17.4206 36.925 -12.0167 41.1551L-10.7839 39.5802ZM-0.990053 45.7331C-4.60137 43.9178 -7.86489 41.8662 -10.7837 39.5803L-12.0169 41.1549C-8.98526 43.5291 -5.60803 45.6502 -1.88832 47.5201L-0.990053 45.7331ZM12.4421 51.537C7.78259 49.8253 3.30523 47.8906 -0.990347 45.733L-1.88803 47.5202C2.47725 49.7128 7.02421 51.6774 11.7525 53.4143L12.4421 51.537ZM12.0782 51.49C12.2029 51.4782 12.3289 51.4947 12.4467 51.5387L11.7479 53.4126C11.9137 53.4744 12.0911 53.4978 12.2669 53.4811L12.0782 51.49ZM11.7963 51.5687C11.8838 51.5264 11.9791 51.4994 12.0781 51.49L12.267 53.4811C12.4066 53.4678 12.5417 53.4297 12.6661 53.3696L11.7963 51.5687ZM12.7448 51.6163C12.8056 51.6495 12.8616 51.6899 12.9116 51.7364L11.5507 53.2019C11.6218 53.2679 11.7012 53.3252 11.7874 53.3722L12.7448 51.6163ZM12.4024 51.5171C12.5223 51.5249 12.6393 51.5587 12.745 51.6164L11.7872 53.3722C11.9372 53.454 12.1031 53.502 12.2734 53.513L12.4024 51.5171ZM12.05 51.5714C12.1621 51.5279 12.2824 51.5094 12.4025 51.5172L12.2733 53.513C12.4437 53.524 12.6144 53.4977 12.7735 53.436L12.05 51.5714ZM25.5587 45.7187C21.3505 47.8312 16.852 49.7808 12.0624 51.5667L12.7611 53.4407C17.6129 51.6315 22.1781 49.6536 26.456 47.5061L25.5587 45.7187ZM35.9552 39.0522C32.9334 41.5331 29.4697 43.7562 25.5589 45.7186L26.4559 47.5062C30.4846 45.4846 34.0758 43.1829 37.2243 40.598L35.9552 39.0522ZM40.1401 34.8886C38.9215 36.3736 37.5274 37.7617 35.9553 39.0522L37.2242 40.5981C38.8922 39.2289 40.3803 37.7488 41.6862 36.1572L40.1401 34.8886ZM46.0633 18.8245C45.7655 25.1208 43.7839 30.4596 40.1409 34.8875L41.6854 36.1582C45.627 31.3674 47.7448 25.6055 48.0611 18.919L46.0633 18.8245ZM44.8705 4.31853C45.8935 9.21206 46.2902 14.0466 46.0634 18.8243L48.0611 18.9191C48.2963 13.9653 47.8844 8.96133 46.8282 3.90925L44.8705 4.31853ZM45.4989 4.69478C45.3787 4.69025 45.2552 4.6567 45.1435 4.59275C45.0358 4.53116 44.9662 4.45708 44.9258 4.40301C44.8555 4.30902 44.8564 4.25377 44.872 4.32548L46.8267 3.9023C46.783 3.70072 46.7022 3.43909 46.5277 3.20563C46.3282 2.93869 46.0026 2.71237 45.5743 2.69621L45.4989 4.69478ZM45.6716 4.74534C45.7099 4.70375 45.7401 4.67492 45.7619 4.65592C45.7841 4.6366 45.7931 4.63152 45.7886 4.63426C45.7845 4.6368 45.759 4.65229 45.713 4.66714C45.6657 4.68244 45.5934 4.698 45.5027 4.69492L45.5705 2.69607C45.2236 2.68431 44.9363 2.80959 44.7351 2.93423C44.5315 3.06041 44.3539 3.22403 44.2013 3.38946L45.6716 4.74534ZM26.4678 14.6902C32.5642 10.9411 38.8494 7.70776 45.3236 4.98943L44.5493 3.14538C37.9787 5.90418 31.6023 9.18476 25.4202 12.9865L26.4678 14.6902ZM20.7418 18.7989C22.743 17.1757 24.6517 15.8074 26.4679 14.6901L25.42 12.9866C23.5173 14.1571 21.5378 15.578 19.4819 17.2456L20.7418 18.7989ZM13.3253 28.2697C15.3104 24.3434 17.786 21.1949 20.7416 18.7991L19.4822 17.2454C16.2787 19.8422 13.635 23.2245 11.5405 27.3674L13.3253 28.2697ZM13.1727 28.718C13.2368 28.5337 13.3029 28.3494 13.3709 28.165L11.4948 27.4721C11.4223 27.6684 11.3519 27.8649 11.2836 28.0614L13.1727 28.718ZM11.1131 28.2279C11.1705 28.3888 11.2265 28.5498 11.2811 28.7107L13.1752 28.0687C13.1173 27.8977 13.0578 27.7268 12.9969 27.556L11.1131 28.2279ZM9.83054 25.8899C10.2236 26.6361 10.6738 27.4655 11.181 28.3778L12.929 27.4061C12.4275 26.5039 11.9847 25.688 11.6001 24.9578L9.83054 25.8899ZM0.659779 16.4043C4.21135 18.8538 7.87328 22.1875 9.83125 25.8912L11.5994 24.9565C9.42414 20.8418 5.46204 17.2868 1.79529 14.7579L0.659779 16.4043ZM-12.7994 8.60567C-8.10243 10.8509 -3.6164 13.4503 0.659161 16.4038L1.79591 14.7583C-2.56685 11.7445 -7.14458 9.09206 -11.9368 6.80123L-12.7994 8.60567ZM-11.9364 100.864C-14.7174 99.5328 -17.4637 98.2677 -20.1752 97.0689L-20.9839 98.8981C-18.2916 100.088 -15.5635 101.345 -12.7998 102.668L-11.9364 100.864ZM1.7959 108.821C-2.56685 105.807 -7.14458 103.155 -11.9368 100.864L-12.7994 102.668C-8.10243 104.913 -3.6164 107.513 0.659163 110.466L1.7959 108.821ZM11.5994 119.019C9.42414 114.904 5.46204 111.349 1.79529 108.82L0.659777 110.467C4.21135 112.916 7.87328 116.25 9.83125 119.954L11.5994 119.019ZM12.929 121.469C12.4275 120.566 11.9847 119.75 11.6001 119.02L9.83054 119.952C10.2236 120.699 10.6738 121.528 11.181 122.44L12.929 121.469ZM13.1752 122.131C13.1173 121.96 13.0578 121.789 12.9969 121.618L11.1131 122.29C11.1705 122.451 11.2265 122.612 11.2811 122.773L13.1752 122.131ZM11.4948 121.535C11.4223 121.731 11.3519 121.927 11.2836 122.124L13.1727 122.781C13.2368 122.596 13.3029 122.412 13.3709 122.228L11.4948 121.535ZM19.4822 111.308C16.2787 113.905 13.635 117.287 11.5405 121.43L13.3253 122.332C15.3104 118.406 17.786 115.257 20.7416 112.862L19.4822 111.308ZM25.42 107.049C23.5173 108.22 21.5378 109.641 19.4819 111.308L20.7418 112.861C22.743 111.238 24.6517 109.87 26.4679 108.753L25.42 107.049ZM44.5493 97.2079C37.9787 99.9667 31.6023 103.247 25.4202 107.049L26.4678 108.753C32.5642 105.004 38.8494 101.77 45.3236 99.0519L44.5493 97.2079ZM45.5704 96.7586C45.2236 96.7468 44.9363 96.8721 44.7351 96.9967C44.5315 97.1229 44.3539 97.2865 44.2013 97.452L45.6716 98.8078C45.7099 98.7663 45.7401 98.7374 45.7619 98.7184C45.7841 98.6991 45.7931 98.694 45.7886 98.6968C45.7846 98.6993 45.759 98.7148 45.713 98.7296C45.6657 98.7449 45.5935 98.7605 45.5027 98.7574L45.5704 96.7586ZM46.8267 97.9648C46.783 97.7632 46.7022 97.5016 46.5277 97.2681C46.3282 97.0012 46.0026 96.7749 45.5743 96.7587L45.4989 98.7573C45.3787 98.7527 45.2552 98.7192 45.1434 98.6553C45.0358 98.5937 44.9662 98.5196 44.9258 98.4655C44.8555 98.3715 44.8564 98.3163 44.872 98.388L46.8267 97.9648ZM48.0611 112.982C48.2963 108.028 47.8844 103.024 46.8282 97.9717L44.8705 98.381C45.8935 103.275 46.2902 108.109 46.0634 112.887L48.0611 112.982ZM41.6854 130.221C45.627 125.43 47.7448 119.668 48.0611 112.981L46.0633 112.887C45.7655 119.183 43.7839 124.522 40.1409 128.95L41.6854 130.221ZM37.2242 134.661C38.8922 133.291 40.3803 131.811 41.6862 130.22L40.1401 128.951C38.9215 130.436 37.5274 131.824 35.9553 133.115L37.2242 134.661ZM26.4559 141.569C30.4846 139.547 34.0758 137.245 37.2243 134.661L35.9552 133.115C32.9334 135.596 29.4697 137.819 25.5589 139.781L26.4559 141.569ZM12.7611 147.503C17.6129 145.694 22.1781 143.716 26.456 141.569L25.5587 139.781C21.3505 141.894 16.852 143.843 12.0624 145.629L12.7611 147.503ZM12.2731 147.575C12.4438 147.587 12.6144 147.56 12.7731 147.499L12.0504 145.634C12.1621 145.59 12.2822 145.572 12.4026 145.58L12.2731 147.575ZM11.7873 147.435C11.9375 147.517 12.1034 147.564 12.2731 147.575L12.4027 145.58C12.5221 145.587 12.6389 145.621 12.7449 145.679L11.7873 147.435ZM11.5509 147.265C11.622 147.331 11.7012 147.388 11.7865 147.434L12.7457 145.679C12.8057 145.712 12.8614 145.752 12.9115 145.799L11.5509 147.265ZM12.2674 147.544C12.4063 147.53 12.5411 147.492 12.6659 147.432L11.7965 145.631C11.8843 145.589 11.9795 145.562 12.0777 145.553L12.2674 147.544ZM11.7476 147.475C11.9137 147.537 12.0912 147.56 12.267 147.544L12.0781 145.553C12.2027 145.541 12.3289 145.557 12.4469 145.601L11.7476 147.475ZM-1.88803 141.583C2.47725 143.775 7.02421 145.74 11.7525 147.477L12.4421 145.599C7.78259 143.888 3.30523 141.953 -0.990347 139.795L-1.88803 141.583ZM-12.0169 135.217C-8.98526 137.592 -5.60803 139.713 -1.88832 141.583L-0.990051 139.796C-4.60137 137.98 -7.86489 135.929 -10.7837 133.643L-12.0169 135.217ZM-22.8167 118.635C-21.3478 125.479 -17.4206 130.987 -12.0167 135.218L-10.7839 133.643C-15.8863 129.649 -19.5071 124.524 -20.8613 118.216L-22.8167 118.635ZM-22.3368 97.7451C-23.5948 104.651 -24.3123 111.688 -22.8166 118.636L-20.8614 118.215C-22.2733 111.656 -21.613 104.932 -20.3692 98.1036L-22.3368 97.7451ZM-20.7301 96.8497C-20.9217 96.7745 -21.3311 96.6649 -21.7543 96.9009C-22.1766 97.1362 -22.299 97.5409 -22.3363 97.7423L-20.3697 98.1064C-20.3788 98.1556 -20.4442 98.4603 -20.7805 98.6478C-21.1178 98.8358 -21.4123 98.7304 -21.4603 98.7116L-20.7301 96.8497ZM-20.2134 97.053L-20.729 96.8501L-21.4613 98.7112L-20.9457 98.9141L-20.2134 97.053ZM-13.2068 55.2314C-16.0071 53.8823 -18.7723 52.6003 -21.5024 51.3854L-22.3156 53.2127C-19.6046 54.4191 -16.8577 55.6925 -14.0749 57.0332L-13.2068 55.2314ZM0.619427 63.2947C-3.77314 60.2406 -8.3822 57.5527 -13.2073 55.2312L-14.0744 57.0334C-9.34487 59.3089 -4.82764 61.9433 -0.522293 64.9368L0.619427 63.2947ZM10.4871 73.6257C8.29842 69.4586 4.31078 65.8571 0.618811 63.2942L-0.521677 64.9372C3.05448 67.4196 6.74347 70.7993 8.7165 74.5557L10.4871 73.6257ZM11.7115 75.9006C11.2533 75.0683 10.8455 74.3106 10.4878 73.627L8.7158 74.5544C9.08129 75.2528 9.49593 76.0231 9.95942 76.8651L11.7115 75.9006ZM11.7272 76.8353C13.7183 72.9114 16.1941 69.7599 19.1442 67.3563L17.8809 65.8058C14.6858 68.4091 12.0435 71.7922 9.94369 75.9303L11.7272 76.8353ZM19.1444 67.3561C21.1612 65.7119 23.0847 64.3258 24.9152 63.194L23.8634 61.4929C21.9463 62.6782 19.952 64.1172 17.8806 65.806L19.1444 67.3561ZM24.9151 63.1941C31.0584 59.3968 37.3919 56.1218 43.9159 53.3685L43.1383 51.5259C36.5176 54.32 30.0926 57.6425 23.8635 61.4928L24.9151 63.1941ZM44.2639 53.1232C44.3028 53.0809 44.3335 53.0514 44.3558 53.0319C44.3785 53.0121 44.3878 53.0066 44.3837 53.0092C44.38 53.0115 44.3546 53.027 44.3087 53.0419C44.2613 53.0573 44.1889 53.073 44.0978 53.0699L44.1659 51.0711C43.817 51.0592 43.5282 51.1858 43.3263 51.3116C43.1219 51.4389 42.9436 51.604 42.7903 51.7711L44.2639 53.1232ZM44.0939 53.0698C43.9732 53.0652 43.8493 53.0313 43.7376 52.967C43.63 52.9052 43.5609 52.831 43.521 52.7774C43.4519 52.6845 43.4535 52.6309 43.4694 52.7048L45.4245 52.2837C45.3808 52.0808 45.3001 51.8182 45.1259 51.584C44.9268 51.3163 44.6006 51.0876 44.1697 51.0712L44.0939 53.0698ZM43.4679 52.6979C44.4991 57.6556 44.8989 62.5537 44.6703 67.3942L46.668 67.4886C46.905 62.4728 46.49 57.4061 45.426 52.2906L43.4679 52.6979ZM44.6702 67.3944C44.3699 73.7751 42.3719 79.1858 38.6992 83.6728L40.2468 84.9396C44.2167 80.0895 46.3495 74.257 46.668 67.4884L44.6702 67.3944ZM38.6983 83.6738C37.47 85.1785 36.0646 86.5849 34.4801 87.8923L35.7529 89.4349C37.4333 88.0485 38.9323 86.5499 40.2477 84.9385L38.6983 83.6738ZM34.48 87.8923C31.4346 90.4055 27.9439 92.6574 24.0028 94.645L24.9035 96.4308C28.9628 94.3835 32.581 92.0525 35.753 89.4349L34.48 87.8923ZM24.0027 94.6451C19.902 96.7142 15.5279 98.6289 10.8795 100.389L11.5877 102.259C16.2966 100.476 20.7355 98.5338 24.9036 96.4307L24.0027 94.6451ZM12.2157 101.517C12.2168 101.51 12.2178 101.503 12.2188 101.496C12.2199 101.489 12.2209 101.483 12.2219 101.476L10.2452 101.172C10.2442 101.179 10.2431 101.185 10.2421 101.192C10.241 101.199 10.24 101.206 10.239 101.212L12.2157 101.517ZM12.0294 101.994C12.1244 101.852 12.1873 101.692 12.2145 101.524L10.2402 101.205C10.2589 101.089 10.3021 100.979 10.3677 100.881L12.0294 101.994ZM11.6592 102.348C11.8082 102.258 11.934 102.137 12.0293 101.994L10.3678 100.881C10.4336 100.783 10.5209 100.699 10.6251 100.636L11.6592 102.348ZM11.1641 102.511C11.3409 102.494 11.5098 102.438 11.659 102.348L10.6253 100.636C10.7298 100.573 10.8487 100.532 10.9741 100.52L11.1641 102.511ZM10.6418 102.442C10.8084 102.505 10.9871 102.528 11.1644 102.511L10.9738 100.52C11.0996 100.508 11.2265 100.525 11.3448 100.57L10.6418 102.442ZM10.5235 102.398C10.5645 102.413 10.6055 102.429 10.6465 102.444L11.3401 100.568C11.2996 100.553 11.2592 100.538 11.2188 100.523L10.5235 102.398ZM10.5194 100.525C10.4805 100.539 10.4416 100.554 10.4025 100.568L11.1044 102.441C11.1439 102.426 11.1834 102.412 11.2229 102.397L10.5194 100.525ZM10.39 100.573C10.5026 100.529 10.6234 100.511 10.7439 100.518L10.6142 102.514C10.7854 102.525 10.957 102.499 11.1169 102.436L10.39 100.573ZM10.7439 100.518C10.8643 100.526 10.9816 100.56 11.0875 100.618L10.1258 102.372C10.2764 102.455 10.4431 102.503 10.6142 102.514L10.7439 100.518ZM11.0873 100.618C11.1932 100.676 11.2846 100.757 11.3554 100.853L9.74438 102.038C9.84548 102.175 9.97559 102.29 10.1261 102.372L11.0873 100.618ZM11.3554 100.853C11.4262 100.949 11.4753 101.06 11.4991 101.177L9.53934 101.576C9.57339 101.743 9.64342 101.901 9.74438 102.038L11.3554 100.853ZM11.4973 101.168C11.4937 101.151 11.4902 101.135 11.4866 101.118L9.53021 101.533C9.53388 101.55 9.53755 101.568 9.54123 101.585L11.4973 101.168ZM-3.08771 96.4707C1.15702 98.6166 5.57241 100.547 10.1581 102.262L10.8588 100.389C6.33981 98.6987 1.99187 96.7976 -2.18539 94.6858L-3.08771 96.4707ZM-13.2854 90.0206C-10.2333 92.4263 -6.83315 94.5757 -3.08801 96.4705L-2.18509 94.686C-5.82155 92.8461 -9.10794 90.7668 -12.0474 88.4498L-13.2854 90.0206ZM-24.1551 73.2243C-22.6771 80.1544 -18.7255 85.7346 -13.2853 90.0207L-12.0475 88.4497C-17.1861 84.4012 -20.8345 79.2055 -22.1991 72.8071L-24.1551 73.2243ZM-23.6717 52.061C-24.9383 59.0594 -25.6602 66.1871 -24.155 73.2248L-22.1992 72.8065C-23.6216 66.1559 -22.9563 59.3384 -21.7037 52.4172L-23.6717 52.061ZM-22.061 51.1633C-22.2537 51.0872 -22.6656 50.9764 -23.0908 51.2149C-23.5131 51.4518 -23.6343 51.8577 -23.6712 52.0581L-21.7042 52.42C-21.7127 52.4663 -21.7766 52.7708 -22.1123 52.9592C-22.451 53.1492 -22.7473 53.0426 -22.7953 53.0236L-22.061 51.1633ZM-21.5408 51.3693L-22.06 51.1637L-22.7963 53.0232L-22.2772 53.2288L-21.5408 51.3693Z" fill="white" fill-opacity="0.33" mask="url(#path-1-inside-1_0_4805)"/>
<mask id="path-3-inside-2_0_4805" fill="white">
<path fill-rule="evenodd" clip-rule="evenodd" d="M143.878 240.771C141.157 239.561 138.401 238.283 135.61 236.938C130.832 234.64 126.269 231.978 121.92 228.955C118.286 226.432 114.448 222.941 112.367 218.98C112.005 218.289 111.594 217.525 111.133 216.687C109.088 220.719 106.529 223.986 103.456 226.489C101.412 228.156 99.4532 229.568 97.5795 230.727C91.3932 234.551 85.014 237.849 78.4416 240.623C78.206 240.88 78.0044 241.006 77.8369 241C77.6865 240.994 77.5814 240.853 77.5218 240.576C76.4742 235.539 76.0668 230.557 76.2996 225.629C76.6091 219.054 78.6744 213.433 82.4958 208.764C83.7676 207.206 85.2198 205.754 86.8522 204.407C89.961 201.841 93.5154 199.55 97.5156 197.532C101.65 195.446 106.057 193.518 110.735 191.746L110.741 191.706C110.746 191.68 110.755 191.655 110.77 191.633C110.785 191.611 110.804 191.592 110.827 191.579C110.849 191.565 110.874 191.557 110.9 191.554C110.925 191.552 110.951 191.555 110.975 191.564L111.098 191.61L111.215 191.566C111.239 191.556 111.264 191.552 111.29 191.554C111.315 191.556 111.34 191.563 111.362 191.575C111.384 191.587 111.404 191.604 111.419 191.625C111.434 191.645 111.444 191.669 111.45 191.694L111.46 191.745C116.013 193.447 120.394 195.363 124.605 197.492C128.296 199.359 131.639 201.474 134.635 203.835C139.925 208.002 143.725 213.39 145.146 220.055C146.61 226.899 145.916 233.871 144.656 240.831C144.628 240.985 144.542 241.034 144.397 240.977L143.878 240.771ZM117.608 180.986C114.528 178.489 111.969 175.224 109.929 171.189C109.859 170.999 109.79 170.809 109.724 170.618C109.668 170.784 109.61 170.95 109.551 171.116C109.047 172.023 108.6 172.846 108.211 173.584C106.145 177.493 102.333 180.938 98.7236 183.427C94.4045 186.41 89.8726 189.036 85.128 191.304C82.3556 192.631 79.6185 193.892 76.9165 195.087L76.4009 195.29C76.2572 195.346 76.1713 195.298 76.1431 195.146C74.8922 188.278 74.2033 181.398 75.6571 174.645C77.0687 168.069 80.8426 162.752 86.0958 158.64C89.071 156.31 92.3914 154.224 96.0569 152.381C100.387 150.206 104.899 148.256 109.593 146.532C109.617 146.523 109.643 146.52 109.669 146.522C109.689 146.524 109.709 146.53 109.727 146.539C109.731 146.535 109.734 146.532 109.738 146.529C109.744 146.525 109.749 146.521 109.755 146.518L109.762 146.514C109.784 146.501 109.809 146.494 109.834 146.493C109.859 146.491 109.884 146.495 109.908 146.504C114.729 148.302 119.26 150.265 123.503 152.395C127.473 154.387 131.001 156.65 134.086 159.183C135.706 160.513 137.147 161.947 138.409 163.485C142.202 168.094 144.251 173.645 144.558 180.136C144.789 185.002 144.385 189.921 143.345 194.894C143.286 195.167 143.182 195.307 143.033 195.312C142.866 195.318 142.666 195.194 142.433 194.94C135.91 192.202 129.579 188.945 123.44 185.169C121.581 184.026 119.637 182.631 117.608 180.986ZM143.878 146.709C141.157 145.498 138.401 144.22 135.61 142.876C130.832 140.577 126.269 137.916 121.92 134.892C118.286 132.369 114.448 128.879 112.367 124.917C112.005 124.226 111.594 123.462 111.133 122.625C109.088 126.656 106.529 129.923 103.456 132.427C101.412 134.093 99.4532 135.506 97.5795 136.664C91.3932 140.488 85.014 143.787 78.4416 146.561C78.206 146.817 78.0044 146.943 77.8369 146.937C77.6865 146.932 77.5814 146.79 77.5218 146.514C76.4742 141.477 76.0668 136.495 76.2996 131.566C76.6091 124.992 78.6744 119.37 82.4958 114.702C83.7676 113.144 85.2198 111.691 86.8522 110.344C89.961 107.779 93.5154 105.487 97.5156 103.47C101.65 101.384 106.057 99.4551 110.735 97.6839C110.737 97.6703 110.739 97.6568 110.741 97.6433C110.746 97.6171 110.755 97.5921 110.77 97.5701C110.785 97.5481 110.804 97.5297 110.827 97.5162C110.849 97.5027 110.874 97.4944 110.9 97.4919C110.925 97.4895 110.951 97.4929 110.975 97.502C111.016 97.517 111.057 97.5321 111.098 97.5472C111.137 97.5325 111.176 97.5177 111.215 97.503C111.239 97.4938 111.264 97.4899 111.29 97.4915C111.315 97.4932 111.34 97.5003 111.362 97.5126C111.384 97.5248 111.404 97.5418 111.419 97.5623C111.434 97.5828 111.444 97.6064 111.45 97.6314C111.453 97.6484 111.457 97.6653 111.46 97.6823C116.013 99.385 120.394 101.301 124.605 103.43C128.296 105.297 131.639 107.411 134.635 109.773C139.925 113.94 143.725 119.328 145.146 125.992C146.61 132.836 145.916 139.809 144.656 146.769C144.628 146.923 144.542 146.971 144.397 146.914L143.878 146.709Z"/>
</mask>
<path d="M135.61 236.938L136.044 236.037L136.043 236.037L135.61 236.938ZM143.878 240.771L143.471 241.685L143.49 241.693L143.51 241.701L143.878 240.771ZM121.92 228.955L122.491 228.134L122.49 228.133L121.92 228.955ZM112.367 218.98L111.481 219.443L111.482 219.445L112.367 218.98ZM111.133 216.687L112.009 216.205L111.097 214.548L110.242 216.235L111.133 216.687ZM103.456 226.489L102.825 225.714L102.824 225.714L103.456 226.489ZM97.5795 230.727L98.1053 231.577L98.1054 231.577L97.5795 230.727ZM78.4416 240.623L78.0528 239.702L77.8521 239.787L77.7048 239.947L78.4416 240.623ZM77.8369 241L77.799 241.999L77.8029 241.999L77.8369 241ZM77.5218 240.576L76.5427 240.78L76.5442 240.787L77.5218 240.576ZM76.2996 225.629L77.2985 225.676L77.2985 225.676L76.2996 225.629ZM82.4958 208.764L83.2696 209.398L83.2704 209.397L82.4958 208.764ZM86.8522 204.407L87.4887 205.178L87.4887 205.178L86.8522 204.407ZM97.5156 197.532L97.9659 198.425L97.9661 198.425L97.5156 197.532ZM110.735 191.746L111.089 192.682L111.635 192.475L111.724 191.898L110.735 191.746ZM110.741 191.706L109.754 191.546L109.753 191.554L110.741 191.706ZM110.827 191.579L111.344 192.435L111.344 192.435L110.827 191.579ZM110.975 191.564L110.624 192.501L110.628 192.502L110.975 191.564ZM111.098 191.61L110.75 192.547L111.1 192.677L111.449 192.546L111.098 191.61ZM111.215 191.566L111.567 192.502L111.579 192.497L111.215 191.566ZM111.29 191.554L111.225 192.552H111.225L111.29 191.554ZM111.419 191.625L112.224 191.032L112.224 191.032L111.419 191.625ZM111.45 191.694L110.47 191.893L110.471 191.902L111.45 191.694ZM111.46 191.745L110.482 191.953L110.596 192.489L111.11 192.681L111.46 191.745ZM124.605 197.492L125.057 196.6L125.056 196.6L124.605 197.492ZM134.635 203.835L134.016 204.62L134.016 204.621L134.635 203.835ZM145.146 220.055L144.168 220.263L144.168 220.264L145.146 220.055ZM144.656 240.831L145.64 241.012L145.64 241.009L144.656 240.831ZM144.397 240.977L144.029 241.907L144.03 241.907L144.397 240.977ZM109.929 171.189L108.991 171.536L109.011 171.589L109.037 171.64L109.929 171.189ZM117.608 180.986L118.238 180.209L118.238 180.209L117.608 180.986ZM109.724 170.618L110.669 170.29L109.712 167.538L108.777 170.297L109.724 170.618ZM109.551 171.116L110.425 171.602L110.465 171.53L110.493 171.452L109.551 171.116ZM108.211 173.584L109.095 174.051L109.096 174.05L108.211 173.584ZM98.7236 183.427L98.1559 182.604L98.1553 182.604L98.7236 183.427ZM85.128 191.304L84.6967 190.402L84.6962 190.402L85.128 191.304ZM76.9165 195.087L77.2826 196.017L77.3019 196.01L77.3209 196.001L76.9165 195.087ZM76.4009 195.29L76.766 196.221L76.767 196.22L76.4009 195.29ZM76.1431 195.146L75.1593 195.325L75.1598 195.328L76.1431 195.146ZM75.6571 174.645L76.6347 174.855L76.6348 174.855L75.6571 174.645ZM86.0958 158.64L86.7122 159.428L86.7124 159.427L86.0958 158.64ZM96.0569 152.381L95.6081 151.488L95.6078 151.488L96.0569 152.381ZM109.593 146.532L109.938 147.471L109.943 147.469L109.593 146.532ZM109.669 146.522L109.763 145.527H109.763L109.669 146.522ZM109.727 146.539L109.292 147.439L109.908 147.736L110.408 147.271L109.727 146.539ZM109.738 146.529L110.355 147.316L110.356 147.316L109.738 146.529ZM109.755 146.518L109.255 145.652L109.245 145.657L109.236 145.663L109.755 146.518ZM109.762 146.514L109.283 145.636L109.273 145.641L109.262 145.648L109.762 146.514ZM109.834 146.493L109.77 145.495H109.77L109.834 146.493ZM109.908 146.504L109.546 147.436L109.558 147.441L109.908 146.504ZM123.503 152.395L123.055 153.289L123.055 153.289L123.503 152.395ZM134.086 159.183L133.451 159.956L133.451 159.956L134.086 159.183ZM138.409 163.485L137.636 164.119L137.637 164.12L138.409 163.485ZM144.558 180.136L143.559 180.183L143.559 180.184L144.558 180.136ZM143.345 194.894L144.323 195.106L144.324 195.099L143.345 194.894ZM143.033 195.312L143.067 196.312L143.07 196.312L143.033 195.312ZM142.433 194.94L143.168 194.262L143.02 194.103L142.82 194.018L142.433 194.94ZM123.44 185.169L122.916 186.021L122.916 186.021L123.44 185.169ZM135.61 142.876L136.044 141.975L136.043 141.974L135.61 142.876ZM143.878 146.709L143.471 147.622L143.49 147.631L143.51 147.639L143.878 146.709ZM121.92 134.892L122.491 134.071L122.49 134.071L121.92 134.892ZM112.367 124.917L111.481 125.381L111.482 125.382L112.367 124.917ZM111.133 122.625L112.009 122.143L111.097 120.486L110.242 122.172L111.133 122.625ZM103.456 132.427L102.825 131.652L102.824 131.652L103.456 132.427ZM97.5795 136.664L98.1053 137.515L98.1054 137.515L97.5795 136.664ZM78.4416 146.561L78.0528 145.639L77.8521 145.724L77.7048 145.885L78.4416 146.561ZM77.8369 146.937L77.799 147.937L77.8029 147.937L77.8369 146.937ZM77.5218 146.514L76.5427 146.717L76.5442 146.724L77.5218 146.514ZM76.2996 131.566L77.2985 131.614L77.2985 131.613L76.2996 131.566ZM82.4958 114.702L83.2696 115.335L83.2704 115.334L82.4958 114.702ZM86.8522 110.344L87.4887 111.116L87.4887 111.116L86.8522 110.344ZM97.5156 103.47L97.9659 104.363L97.9661 104.363L97.5156 103.47ZM110.735 97.6839L111.089 98.6191L111.635 98.4126L111.724 97.836L110.735 97.6839ZM110.741 97.6433L109.754 97.4834L109.753 97.4912L110.741 97.6433ZM110.77 97.5701L111.601 98.1269L111.601 98.1266L110.77 97.5701ZM110.975 97.502L110.624 98.4381L110.629 98.4399L110.975 97.502ZM111.098 97.5472L110.75 98.4848L111.1 98.6145L111.449 98.4834L111.098 97.5472ZM111.215 97.503L111.566 98.4395L111.579 98.4345L111.215 97.503ZM111.29 97.4915L111.225 98.4894H111.225L111.29 97.4915ZM111.362 97.5126L110.881 98.3893L110.881 98.3895L111.362 97.5126ZM111.419 97.5623L110.613 98.1547L110.613 98.155L111.419 97.5623ZM111.45 97.6314L110.47 97.831L110.471 97.8399L111.45 97.6314ZM111.46 97.6823L110.482 97.8899L110.596 98.4267L111.11 98.6189L111.46 97.6823ZM124.605 103.43L125.057 102.537L125.056 102.537L124.605 103.43ZM134.635 109.773L134.016 110.558L134.016 110.558L134.635 109.773ZM145.146 125.992L144.168 126.201L144.168 126.201L145.146 125.992ZM144.656 146.769L145.64 146.95L145.64 146.947L144.656 146.769ZM144.397 146.914L144.029 147.844L144.03 147.845L144.397 146.914ZM135.176 237.839C137.976 239.188 140.741 240.47 143.471 241.685L144.284 239.858C141.573 238.651 138.826 237.378 136.044 236.037L135.176 237.839ZM121.349 229.776C125.742 232.83 130.351 235.518 135.176 237.839L136.043 236.037C131.314 233.761 126.796 231.127 122.491 228.134L121.349 229.776ZM111.482 219.445C113.67 223.612 117.658 227.213 121.35 229.776L122.49 228.133C118.914 225.651 115.225 222.271 113.252 218.515L111.482 219.445ZM110.257 217.17C110.715 218.002 111.123 218.76 111.481 219.443L113.253 218.516C112.887 217.818 112.473 217.047 112.009 216.205L110.257 217.17ZM104.088 227.265C107.283 224.661 109.925 221.278 112.025 217.14L110.242 216.235C108.25 220.159 105.775 223.31 102.825 225.714L104.088 227.265ZM98.1054 231.577C100.022 230.392 102.017 228.953 104.088 227.264L102.824 225.714C100.808 227.358 98.884 228.745 97.0536 229.876L98.1054 231.577ZM78.8305 241.544C85.4511 238.75 91.8761 235.428 98.1053 231.577L97.0537 229.876C90.9104 233.674 84.5768 236.949 78.0528 239.702L78.8305 241.544ZM77.8029 241.999C78.1518 242.011 78.4406 241.884 78.6424 241.759C78.8468 241.631 79.0252 241.466 79.1785 241.299L77.7048 239.947C77.6659 239.989 77.6353 240.019 77.613 240.038C77.5903 240.058 77.5809 240.064 77.585 240.061C77.5888 240.059 77.6141 240.043 77.6601 240.028C77.7074 240.013 77.7799 239.997 77.871 240L77.8029 241.999ZM76.5442 240.787C76.5879 240.99 76.6687 241.252 76.8428 241.486C77.0419 241.754 77.3681 241.983 77.799 241.999L77.8748 240.001C77.9956 240.005 78.1194 240.039 78.2312 240.103C78.3387 240.165 78.4079 240.239 78.4477 240.293C78.5169 240.386 78.5153 240.439 78.4994 240.365L76.5442 240.787ZM75.3007 225.582C75.0638 230.598 75.4787 235.664 76.5427 240.78L78.5008 240.372C77.4697 235.415 77.0698 230.517 77.2985 225.676L75.3007 225.582ZM81.7219 208.131C77.752 212.981 75.6193 218.813 75.3007 225.582L77.2985 225.676C77.5988 219.295 79.5968 213.885 83.2696 209.398L81.7219 208.131ZM86.2158 203.635C84.5355 205.022 83.0365 206.52 81.7211 208.132L83.2704 209.397C84.4988 207.892 85.9041 206.485 87.4887 205.178L86.2158 203.635ZM97.0653 196.64C93.006 198.687 89.3878 201.018 86.2158 203.635L87.4887 205.178C90.5342 202.665 94.0249 200.413 97.9659 198.425L97.0653 196.64ZM110.381 190.811C105.672 192.594 101.233 194.536 97.0651 196.64L97.9661 198.425C102.067 196.356 106.441 194.441 111.089 192.682L110.381 190.811ZM109.753 191.554L109.747 191.594L111.724 191.898L111.73 191.858L109.753 191.554ZM109.939 191.076C109.844 191.218 109.781 191.378 109.754 191.546L111.729 191.866C111.71 191.981 111.667 192.091 111.601 192.189L109.939 191.076ZM110.31 190.723C110.161 190.813 110.035 190.934 109.939 191.076L111.601 192.189C111.535 192.287 111.448 192.372 111.344 192.435L110.31 190.723ZM110.805 190.559C110.628 190.576 110.459 190.633 110.31 190.723L111.344 192.435C111.239 192.498 111.12 192.538 110.995 192.55L110.805 190.559ZM111.327 190.628C111.16 190.566 110.982 190.542 110.805 190.559L110.995 192.55C110.869 192.562 110.742 192.545 110.624 192.501L111.327 190.628ZM111.445 190.672L111.323 190.627L110.628 192.502L110.75 192.547L111.445 190.672ZM110.864 190.629L110.746 190.673L111.449 192.546L111.567 192.502L110.864 190.629ZM111.355 190.556C111.183 190.545 111.012 190.572 110.852 190.634L111.579 192.497C111.466 192.541 111.345 192.56 111.225 192.552L111.355 190.556ZM111.843 190.698C111.692 190.616 111.526 190.567 111.355 190.556L111.225 192.552C111.104 192.544 110.987 192.51 110.881 192.452L111.843 190.698ZM112.224 191.032C112.123 190.895 111.993 190.781 111.843 190.698L110.881 192.452C110.776 192.394 110.684 192.314 110.613 192.217L112.224 191.032ZM112.429 191.494C112.395 191.327 112.325 191.17 112.224 191.032L110.613 192.217C110.543 192.121 110.493 192.011 110.47 191.893L112.429 191.494ZM112.438 191.537L112.428 191.486L110.471 191.902L110.482 191.953L112.438 191.537ZM125.056 196.6C120.812 194.454 116.396 192.523 111.811 190.808L111.11 192.681C115.629 194.372 119.977 196.273 124.154 198.385L125.056 196.6ZM135.254 203.05C132.202 200.644 128.802 198.495 125.057 196.6L124.154 198.384C127.79 200.224 131.077 202.304 134.016 204.62L135.254 203.05ZM146.124 219.846C144.646 212.916 140.694 207.336 135.254 203.05L134.016 204.621C139.155 208.669 142.803 213.865 144.168 220.263L146.124 219.846ZM145.64 241.009C146.907 234.011 147.629 226.883 146.124 219.845L144.168 220.264C145.59 226.914 144.925 233.732 143.672 240.653L145.64 241.009ZM144.03 241.907C144.222 241.983 144.634 242.094 145.06 241.855C145.482 241.619 145.603 241.213 145.64 241.012L143.673 240.65C143.681 240.604 143.745 240.299 144.081 240.111C144.42 239.921 144.716 240.028 144.764 240.047L144.03 241.907ZM143.51 241.701L144.029 241.907L144.765 240.047L144.246 239.842L143.51 241.701ZM109.037 171.64C111.131 175.783 113.775 179.166 116.978 181.762L118.238 180.209C115.282 177.813 112.807 174.664 110.821 170.738L109.037 171.64ZM108.78 170.946C108.848 171.143 108.918 171.339 108.991 171.536L110.867 170.843C110.799 170.658 110.733 170.474 110.669 170.29L108.78 170.946ZM110.493 171.452C110.554 171.281 110.613 171.11 110.671 170.939L108.777 170.297C108.723 170.458 108.667 170.619 108.609 170.78L110.493 171.452ZM109.096 174.05C109.481 173.32 109.924 172.504 110.425 171.602L108.677 170.63C108.17 171.542 107.72 172.372 107.327 173.118L109.096 174.05ZM99.2914 184.25C102.958 181.721 106.92 178.166 109.095 174.051L107.327 173.117C105.369 176.82 101.707 180.154 98.1559 182.604L99.2914 184.25ZM85.5593 192.207C90.3515 189.916 94.9292 187.263 99.292 184.25L98.1553 182.604C93.8797 185.558 89.3937 188.157 84.6967 190.402L85.5593 192.207ZM77.3209 196.001C80.0324 194.803 82.7787 193.538 85.5597 192.206L84.6962 190.402C81.9326 191.725 79.2045 192.982 76.5122 194.172L77.3209 196.001ZM76.767 196.22L77.2826 196.017L76.5504 194.156L76.0348 194.359L76.767 196.22ZM75.1598 195.328C75.1971 195.529 75.3196 195.934 75.7418 196.169C76.165 196.405 76.5743 196.296 76.766 196.221L76.0358 194.359C76.0838 194.34 76.3783 194.235 76.7156 194.423C77.0519 194.61 77.1173 194.915 77.1264 194.964L75.1598 195.328ZM74.6795 174.434C73.1838 181.383 73.9013 188.419 75.1593 195.325L77.1269 194.967C75.883 188.138 75.2228 181.414 76.6347 174.855L74.6795 174.434ZM85.4794 157.853C80.0755 162.083 76.1483 167.592 74.6794 174.435L76.6348 174.855C77.989 168.546 81.6098 163.422 86.7122 159.428L85.4794 157.853ZM95.6078 151.488C91.8881 153.358 88.5108 155.479 85.4792 157.853L86.7124 159.427C89.6312 157.142 92.8947 155.09 96.506 153.275L95.6078 151.488ZM109.249 145.594C104.52 147.33 99.9733 149.295 95.6081 151.488L96.5057 153.275C100.801 151.117 105.279 149.182 109.938 147.471L109.249 145.594ZM109.763 145.527C109.587 145.51 109.41 145.533 109.244 145.595L109.943 147.469C109.825 147.513 109.699 147.53 109.574 147.518L109.763 145.527ZM110.162 145.638C110.038 145.578 109.903 145.54 109.763 145.527L109.574 147.518C109.475 147.508 109.379 147.481 109.292 147.439L110.162 145.638ZM109.121 145.742C109.096 145.763 109.071 145.784 109.046 145.806L110.408 147.271C110.391 147.287 110.373 147.302 110.355 147.316L109.121 145.742ZM109.236 145.663C109.196 145.687 109.157 145.714 109.12 145.743L110.356 147.316C110.33 147.336 110.303 147.355 110.274 147.372L109.236 145.663ZM109.262 145.648L109.255 145.652L110.255 147.384L110.262 147.379L109.262 145.648ZM109.77 145.495C109.599 145.506 109.433 145.554 109.283 145.636L110.241 147.391C110.135 147.449 110.019 147.483 109.898 147.491L109.77 145.495ZM110.27 145.572C110.11 145.51 109.94 145.484 109.77 145.495L109.898 147.491C109.779 147.498 109.658 147.48 109.546 147.436L110.27 145.572ZM123.952 151.502C119.674 149.354 115.109 147.376 110.257 145.567L109.558 147.441C114.348 149.227 118.847 151.177 123.055 153.289L123.952 151.502ZM134.72 158.41C131.572 155.825 127.981 153.523 123.952 151.502L123.055 153.289C126.966 155.252 130.43 157.475 133.451 159.956L134.72 158.41ZM139.182 162.851C137.876 161.259 136.388 159.779 134.72 158.41L133.451 159.956C135.023 161.246 136.418 162.634 137.636 164.119L139.182 162.851ZM145.557 180.089C145.241 173.402 143.123 167.64 139.181 162.85L137.637 164.12C141.28 168.548 143.262 173.887 143.559 180.183L145.557 180.089ZM144.324 195.099C145.38 190.046 145.792 185.042 145.557 180.089L143.559 180.184C143.786 184.961 143.39 189.796 142.367 194.689L144.324 195.099ZM143.07 196.312C143.499 196.295 143.824 196.069 144.024 195.802C144.198 195.569 144.279 195.307 144.323 195.106L142.368 194.682C142.353 194.754 142.352 194.699 142.422 194.605C142.462 194.551 142.532 194.477 142.64 194.415C142.751 194.351 142.875 194.318 142.995 194.313L143.07 196.312ZM141.697 195.618C141.85 195.784 142.028 195.947 142.231 196.074C142.432 196.198 142.72 196.324 143.067 196.312L142.999 194.313C143.09 194.31 143.162 194.325 143.209 194.341C143.255 194.356 143.281 194.371 143.285 194.374C143.289 194.376 143.28 194.371 143.258 194.352C143.236 194.333 143.206 194.304 143.168 194.262L141.697 195.618ZM122.916 186.021C129.098 189.823 135.475 193.104 142.045 195.862L142.82 194.018C136.345 191.3 130.06 188.067 123.964 184.318L122.916 186.021ZM116.978 181.762C119.034 183.43 121.013 184.851 122.916 186.021L123.964 184.318C122.148 183.2 120.239 181.832 118.238 180.209L116.978 181.762ZM135.176 143.776C137.976 145.125 140.741 146.407 143.471 147.622L144.284 145.795C141.573 144.589 138.826 143.315 136.044 141.975L135.176 143.776ZM121.349 135.713C125.742 138.767 130.351 141.455 135.176 143.777L136.043 141.974C131.314 139.699 126.796 137.065 122.491 134.071L121.349 135.713ZM111.482 125.382C113.67 129.549 117.658 133.151 121.35 135.714L122.49 134.071C118.914 131.588 115.225 128.209 113.252 124.452L111.482 125.382ZM110.257 123.107C110.715 123.939 111.123 124.697 111.481 125.381L113.253 124.453C112.887 123.755 112.473 122.985 112.009 122.143L110.257 123.107ZM110.242 122.172C108.25 126.096 105.775 129.248 102.825 131.652L104.088 133.202C107.283 130.599 109.925 127.216 112.025 123.077L110.242 122.172ZM102.824 131.652C100.808 133.296 98.884 134.682 97.0536 135.814L98.1054 137.515C100.022 136.33 102.017 134.891 104.088 133.202L102.824 131.652ZM97.0537 135.814C90.9104 139.611 84.5768 142.886 78.0528 145.639L78.8305 147.482C85.4511 144.688 91.8761 141.365 98.1053 137.515L97.0537 135.814ZM77.7048 145.885C77.6659 145.927 77.6353 145.956 77.613 145.976C77.5903 145.996 77.5809 146.001 77.585 145.999C77.5888 145.996 77.6141 145.981 77.6601 145.966C77.7074 145.951 77.7799 145.935 77.871 145.938L77.8029 147.937C78.1518 147.949 78.4406 147.822 78.6424 147.696C78.8468 147.569 79.0252 147.404 79.1785 147.237L77.7048 145.885ZM77.8748 145.938C77.9956 145.943 78.1194 145.977 78.2312 146.041C78.3387 146.103 78.4079 146.177 78.4477 146.23C78.5169 146.323 78.5153 146.377 78.4994 146.303L76.5442 146.724C76.5879 146.927 76.6687 147.19 76.8428 147.424C77.0419 147.691 77.3681 147.92 77.799 147.937L77.8748 145.938ZM78.5008 146.31C77.4697 141.352 77.0698 136.454 77.2985 131.614L75.3007 131.519C75.0638 136.535 75.4787 141.602 76.5427 146.717L78.5008 146.31ZM77.2985 131.613C77.5988 125.233 79.5968 119.822 83.2696 115.335L81.7219 114.068C77.752 118.918 75.6193 124.751 75.3007 131.519L77.2985 131.613ZM83.2704 115.334C84.4988 113.829 85.9041 112.423 87.4887 111.116L86.2158 109.573C84.5355 110.959 83.0365 112.458 81.7211 114.069L83.2704 115.334ZM87.4887 111.116C90.5342 108.602 94.0249 106.35 97.9659 104.363L97.0653 102.577C93.006 104.624 89.3878 106.955 86.2158 109.573L87.4887 111.116ZM97.9661 104.363C102.067 102.294 106.441 100.379 111.089 98.6191L110.381 96.7487C105.672 98.5314 101.233 100.474 97.0651 102.577L97.9661 104.363ZM109.753 97.4912C109.752 97.498 109.751 97.5048 109.75 97.5115C109.749 97.5183 109.748 97.5251 109.747 97.5318L111.724 97.836C111.725 97.8292 111.726 97.8224 111.727 97.8156C111.728 97.8089 111.729 97.8021 111.73 97.7954L109.753 97.4912ZM109.94 97.0133C109.844 97.1553 109.781 97.3158 109.754 97.4834L111.729 97.8032C111.71 97.9183 111.667 98.0288 111.601 98.1269L109.94 97.0133ZM110.31 96.6602C110.161 96.7502 110.035 96.8713 109.939 97.0135L111.601 98.1266C111.535 98.2249 111.448 98.3092 111.344 98.3721L110.31 96.6602ZM110.805 96.4964C110.628 96.5133 110.459 96.57 110.31 96.6602L111.344 98.3721C111.239 98.4353 111.12 98.4754 110.995 98.4874L110.805 96.4964ZM111.327 96.5659C111.16 96.5032 110.982 96.4796 110.805 96.4964L110.995 98.4874C110.869 98.4994 110.742 98.4826 110.624 98.4381L111.327 96.5659ZM111.445 96.6096C111.404 96.5944 111.363 96.5792 111.322 96.564L110.629 98.4399C110.669 98.4549 110.71 98.4698 110.75 98.4848L111.445 96.6096ZM111.449 98.4834C111.488 98.4687 111.527 98.454 111.566 98.4394L110.864 96.5667C110.825 96.5815 110.785 96.5963 110.746 96.611L111.449 98.4834ZM111.579 98.4345C111.466 98.4786 111.345 98.4972 111.225 98.4894L111.355 96.4936C111.184 96.4825 111.012 96.509 110.852 96.5715L111.579 98.4345ZM111.225 98.4894C111.105 98.4816 110.987 98.4475 110.881 98.3893L111.843 96.6359C111.692 96.5531 111.526 96.5047 111.355 96.4936L111.225 98.4894ZM110.881 98.3895C110.776 98.3315 110.684 98.2513 110.613 98.1547L112.224 96.9699C112.123 96.8322 111.993 96.718 111.843 96.6356L110.881 98.3895ZM110.613 98.155C110.542 98.0586 110.493 97.948 110.47 97.831L112.429 97.4319C112.395 97.2648 112.325 97.1071 112.224 96.9696L110.613 98.155ZM110.471 97.8399C110.475 97.8567 110.479 97.8733 110.482 97.8899L112.439 97.4747C112.435 97.4574 112.431 97.4401 112.428 97.423L110.471 97.8399ZM125.056 102.537C120.812 100.391 116.396 98.4608 111.811 96.7457L111.11 98.6189C115.629 100.309 119.977 102.21 124.154 104.322L125.056 102.537ZM135.254 108.987C132.202 106.582 128.802 104.432 125.057 102.537L124.154 104.322C127.79 106.162 131.077 108.241 134.016 110.558L135.254 108.987ZM146.124 125.784C144.646 118.853 140.694 113.273 135.254 108.987L134.016 110.558C139.155 114.607 142.803 119.802 144.168 126.201L146.124 125.784ZM145.64 146.947C146.907 139.948 147.629 132.821 146.124 125.783L144.168 126.201C145.59 132.852 144.925 139.669 143.672 146.591L145.64 146.947ZM144.03 147.845C144.222 147.921 144.634 148.031 145.06 147.793C145.482 147.556 145.603 147.15 145.64 146.95L143.673 146.588C143.681 146.542 143.745 146.237 144.081 146.049C144.42 145.859 144.716 145.965 144.764 145.984L144.03 147.845ZM143.51 147.639L144.029 147.844L144.765 145.985L144.246 145.779L143.51 147.639Z" fill="white" fill-opacity="0.33" mask="url(#path-3-inside-2_0_4805)"/>
<mask id="path-5-inside-3_0_4805" fill="white">
<path fill-rule="evenodd" clip-rule="evenodd" d="M179.769 4.00814C176.996 2.68112 174.259 1.42031 171.557 0.225705L171.042 0.0228434C170.898 -0.0335058 170.812 0.0143959 170.784 0.166539C169.533 7.03409 168.844 13.9143 170.298 20.6678C171.709 27.2437 175.483 32.5602 180.736 36.6723C183.712 39.0023 187.032 41.0887 190.698 42.9313C195.028 45.1064 199.54 47.056 204.234 48.7803C204.258 48.7893 204.284 48.7927 204.309 48.7902C204.331 48.7882 204.351 48.7822 204.37 48.7726C204.381 48.7829 204.394 48.7917 204.407 48.799C204.429 48.811 204.453 48.8181 204.479 48.8197C204.504 48.8214 204.529 48.8175 204.552 48.8084C209.373 47.0108 213.905 45.0471 218.148 42.9171C222.118 40.9251 225.645 38.6627 228.73 36.1298C230.35 34.8 231.792 33.3659 233.054 31.8276C236.846 27.2182 238.896 21.6678 239.203 15.1764C239.434 10.3107 239.03 5.39139 237.99 0.418578C237.931 0.145285 237.827 0.00581866 237.677 0.000183744C237.511 -0.00545117 237.311 0.118519 237.077 0.37209C230.555 3.11066 224.224 6.36763 218.085 10.143C216.225 11.2869 214.281 12.6816 212.252 14.3269C209.173 16.8232 206.613 20.0886 204.574 24.1232C204.502 24.3155 204.434 24.5078 204.367 24.7001C204.31 24.5322 204.252 24.3644 204.192 24.1966C203.687 23.2894 203.241 22.4667 202.852 21.7285C200.785 17.8193 196.973 14.375 193.364 11.8857C189.045 8.90206 184.513 6.27619 179.769 4.00814ZM171.557 94.2882C174.259 95.4828 176.996 96.7436 179.769 98.0706C184.513 100.339 189.045 102.965 193.364 105.948C196.973 108.437 200.785 111.882 202.852 115.791C203.241 116.529 203.687 117.352 204.192 118.259C204.252 118.427 204.31 118.595 204.367 118.763C204.434 118.57 204.502 118.378 204.574 118.186C206.613 114.151 209.173 110.886 212.252 108.389C214.281 106.744 216.225 105.349 218.085 104.206C224.224 100.43 230.555 97.1732 237.077 94.4346C237.311 94.181 237.511 94.0571 237.677 94.0627C237.827 94.0683 237.931 94.2078 237.99 94.4811C239.03 99.4539 239.434 104.373 239.203 109.239C238.896 115.73 236.846 121.281 233.054 125.89C231.792 127.428 230.35 128.862 228.73 130.192C225.645 132.725 222.118 134.988 218.148 136.98C213.905 139.11 209.373 141.073 204.552 142.871C204.529 142.88 204.504 142.884 204.479 142.882C204.453 142.881 204.429 142.874 204.407 142.861C204.399 142.857 204.392 142.853 204.386 142.848C204.38 142.844 204.375 142.84 204.37 142.835C204.351 142.845 204.331 142.851 204.309 142.853C204.284 142.855 204.258 142.852 204.234 142.843C199.54 141.119 195.028 139.169 190.698 136.994C187.032 135.151 183.712 133.065 180.736 130.735C175.483 126.623 171.709 121.306 170.298 114.73C168.844 107.977 169.533 101.097 170.784 94.229C170.812 94.0769 170.898 94.029 171.042 94.0853L171.557 94.2882ZM170.228 48.6037C172.948 49.8144 175.704 51.0921 178.496 52.437C183.273 54.7355 187.836 57.3966 192.185 60.4204C195.819 62.943 199.658 66.4336 201.739 70.3954C202.1 71.0863 202.511 71.8504 202.972 72.6875C205.018 68.6565 207.577 65.3892 210.649 62.8857C212.693 61.2192 214.652 59.8067 216.526 58.6481C222.712 54.8243 229.091 51.5256 235.664 48.7519C235.899 48.495 236.101 48.3695 236.269 48.3752C236.419 48.3809 236.524 48.5221 236.584 48.7989C237.631 53.8355 238.039 58.8179 237.806 63.7461C237.496 70.3208 235.431 75.9424 231.61 80.6108C230.338 82.1689 228.886 83.6214 227.253 84.9683C224.145 87.5337 220.59 89.8251 216.59 91.8426C212.455 93.9287 208.049 95.8574 203.37 97.6286C203.368 97.6421 203.366 97.6557 203.364 97.6692C203.36 97.6954 203.35 97.7204 203.335 97.7424C203.321 97.7644 203.301 97.7828 203.279 97.7963C203.257 97.8098 203.232 97.8181 203.206 97.8206C203.18 97.823 203.154 97.8196 203.13 97.8105C203.089 97.7955 203.049 97.7804 203.008 97.7653C202.969 97.78 202.929 97.7948 202.89 97.8095C202.867 97.8187 202.841 97.8226 202.816 97.821C202.79 97.8193 202.766 97.8122 202.743 97.7999C202.721 97.7877 202.702 97.7707 202.687 97.7502C202.672 97.7297 202.661 97.7061 202.656 97.6811C202.652 97.6641 202.649 97.6472 202.645 97.6302C198.093 95.9275 193.711 94.0117 189.5 91.8829C185.809 90.0156 182.466 87.9012 179.47 85.5399C174.181 81.3726 170.381 75.9846 168.96 69.3204C167.496 62.4762 168.189 55.5036 169.449 48.5438C169.477 48.3896 169.564 48.341 169.709 48.3982L170.228 48.6037Z"/>
</mask>
<path d="M171.557 0.225705L171.962 -0.688892L171.943 -0.697271L171.923 -0.704858L171.557 0.225705ZM179.769 4.00814L179.337 4.91013L179.337 4.91035L179.769 4.00814ZM171.042 0.0228434L171.408 -0.90772L171.407 -0.90813L171.042 0.0228434ZM170.784 0.166539L169.8 -0.015552L169.8 -0.0126666L170.784 0.166539ZM170.298 20.6678L171.275 20.4579L171.275 20.4573L170.298 20.6678ZM180.736 36.6723L181.353 35.885L181.353 35.8849L180.736 36.6723ZM190.698 42.9313L190.248 43.8248L190.249 43.8249L190.698 42.9313ZM204.234 48.7803L204.583 47.8433L204.579 47.8417L204.234 48.7803ZM204.309 48.7902L204.404 49.7858L204.404 49.7858L204.309 48.7902ZM204.37 48.7726L205.059 48.047L204.549 47.5633L203.921 47.8793L204.37 48.7726ZM204.407 48.799L204.886 47.9211L204.885 47.921L204.407 48.799ZM204.479 48.8197L204.543 47.8218L204.543 47.8218L204.479 48.8197ZM204.552 48.8084L204.203 47.8713L204.191 47.8761L204.552 48.8084ZM218.148 42.9171L217.7 42.0233L217.699 42.0234L218.148 42.9171ZM228.73 36.1298L228.096 35.3569L228.096 35.3569L228.73 36.1298ZM233.054 31.8276L232.282 31.1922L232.281 31.1932L233.054 31.8276ZM239.203 15.1764L238.204 15.129L238.204 15.1292L239.203 15.1764ZM237.99 0.418578L238.969 0.213933L238.967 0.206987L237.99 0.418578ZM237.677 0.000183744L237.715 -0.999112L237.711 -0.999242L237.677 0.000183744ZM237.077 0.37209L237.464 1.29411L237.665 1.20992L237.812 1.05003L237.077 0.37209ZM218.085 10.143L217.561 9.2912L217.561 9.29128L218.085 10.143ZM212.252 14.3269L212.882 15.1038L212.882 15.1036L212.252 14.3269ZM204.574 24.1232L203.681 23.672L203.655 23.7231L203.635 23.7768L204.574 24.1232ZM204.367 24.7001L203.42 25.0209L204.355 27.7822L205.311 25.0282L204.367 24.7001ZM204.192 24.1966L205.134 23.8607L205.106 23.7829L205.066 23.7107L204.192 24.1966ZM202.852 21.7285L203.737 21.2625L203.736 21.2612L202.852 21.7285ZM193.364 11.8857L192.796 12.7085L192.796 12.7089L193.364 11.8857ZM179.769 98.0706L179.337 98.9726L179.337 98.9729L179.769 98.0706ZM171.557 94.2882L171.962 93.3736L171.943 93.3652L171.923 93.3577L171.557 94.2882ZM193.364 105.948L192.796 106.771L192.796 106.771L193.364 105.948ZM202.852 115.791L203.737 115.325L203.736 115.324L202.852 115.791ZM204.192 118.259L205.134 117.923L205.106 117.845L205.066 117.773L204.192 118.259ZM204.367 118.763L203.42 119.083L204.355 121.845L205.311 119.091L204.367 118.763ZM204.574 118.186L203.681 117.735L203.655 117.786L203.635 117.839L204.574 118.186ZM212.252 108.389L212.882 109.166L212.882 109.166L212.252 108.389ZM218.085 104.206L217.561 103.354L217.561 103.354L218.085 104.206ZM237.077 94.4346L237.464 95.3566L237.665 95.2724L237.812 95.1125L237.077 94.4346ZM237.677 94.0627L237.715 93.0634L237.711 93.0633L237.677 94.0627ZM237.99 94.4811L238.969 94.2764L238.967 94.2695L237.99 94.4811ZM239.203 109.239L238.204 109.191L238.204 109.192L239.203 109.239ZM233.054 125.89L232.282 125.255L232.281 125.256L233.054 125.89ZM228.73 130.192L228.096 129.419L228.096 129.419L228.73 130.192ZM218.148 136.98L217.7 136.086L217.699 136.086L218.148 136.98ZM204.552 142.871L204.203 141.934L204.191 141.938L204.552 142.871ZM204.407 142.861L203.927 143.739L203.928 143.739L204.407 142.861ZM204.386 142.848L204.988 142.049L204.986 142.049L204.386 142.848ZM204.37 142.835L205.059 142.109L204.549 141.626L203.921 141.942L204.37 142.835ZM204.309 142.853L204.215 141.857L204.215 141.857L204.309 142.853ZM204.234 142.843L204.584 141.906L204.579 141.904L204.234 142.843ZM190.698 136.994L190.248 137.887L190.249 137.887L190.698 136.994ZM180.736 130.735L181.353 129.948L181.353 129.947L180.736 130.735ZM170.298 114.73L171.275 114.52L171.275 114.52L170.298 114.73ZM170.784 94.229L169.8 94.047L169.8 94.0498L170.784 94.229ZM171.042 94.0853L171.408 93.1548L171.407 93.1544L171.042 94.0853ZM178.496 52.437L178.062 53.3379L178.062 53.3381L178.496 52.437ZM170.228 48.6037L170.634 47.6901L170.615 47.6816L170.596 47.674L170.228 48.6037ZM192.185 60.4204L191.614 61.2414L191.615 61.2419L192.185 60.4204ZM201.739 70.3954L202.625 69.9317L202.624 69.9304L201.739 70.3954ZM202.972 72.6875L202.096 73.1698L203.008 74.8265L203.864 73.14L202.972 72.6875ZM210.649 62.8857L211.281 63.661L211.281 63.6608L210.649 62.8857ZM216.526 58.6481L216 57.7975L216 57.7976L216.526 58.6481ZM235.664 48.7519L236.053 49.6732L236.253 49.5885L236.401 49.4279L235.664 48.7519ZM236.269 48.3752L236.306 47.3759L236.303 47.3758L236.269 48.3752ZM236.584 48.7989L237.563 48.5953L237.561 48.5884L236.584 48.7989ZM237.806 63.7461L236.807 63.6989L236.807 63.6991L237.806 63.7461ZM231.61 80.6108L230.836 79.9774L230.835 79.9785L231.61 80.6108ZM227.253 84.9683L226.617 84.1969L226.617 84.197L227.253 84.9683ZM216.59 91.8426L216.14 90.9497L216.139 90.9498L216.59 91.8426ZM203.37 97.6286L203.016 96.6934L202.471 96.8999L202.382 97.4764L203.37 97.6286ZM203.364 97.6692L204.351 97.8293L204.352 97.8214L203.364 97.6692ZM203.335 97.7424L204.166 98.2991L204.166 98.299L203.335 97.7424ZM203.279 97.7963L203.796 98.6524L203.796 98.6523L203.279 97.7963ZM203.206 97.8206L203.111 96.8251L203.11 96.8251L203.206 97.8206ZM203.13 97.8105L203.482 96.8743L203.477 96.8726L203.13 97.8105ZM203.008 97.7653L203.355 96.8277L203.006 96.6979L202.656 96.8292L203.008 97.7653ZM202.89 97.8095L202.539 96.873L202.527 96.8779L202.89 97.8095ZM202.816 97.821L202.751 98.8189H202.751L202.816 97.821ZM202.743 97.7999L203.224 96.9231L203.224 96.923L202.743 97.7999ZM202.687 97.7502L201.881 98.3428L201.881 98.3428L202.687 97.7502ZM202.656 97.6811L203.636 97.4814L203.634 97.4726L202.656 97.6811ZM202.645 97.6302L203.623 97.4226L203.509 96.8858L202.995 96.6936L202.645 97.6302ZM189.5 91.8829L189.049 92.7752L189.049 92.7754L189.5 91.8829ZM179.47 85.5399L180.089 84.7545L180.089 84.7544L179.47 85.5399ZM168.96 69.3204L169.938 69.1118L169.938 69.1112L168.96 69.3204ZM169.449 48.5438L168.465 48.3628L168.465 48.3657L169.449 48.5438ZM169.709 48.3982L170.077 47.4684L170.076 47.468L169.709 48.3982ZM171.153 1.1403C173.845 2.33068 176.573 3.58728 179.337 4.91013L180.2 3.10614C177.419 1.77496 174.673 0.509932 171.962 -0.688892L171.153 1.1403ZM170.675 0.953407L171.191 1.15627L171.923 -0.704858L171.408 -0.90772L170.675 0.953407ZM171.767 0.348628C171.758 0.397839 171.693 0.702494 171.356 0.889977C171.019 1.07798 170.724 0.972627 170.676 0.953817L171.407 -0.90813C171.215 -0.98329 170.806 -1.09287 170.382 -0.856964C169.96 -0.621582 169.838 -0.216905 169.8 -0.0155512L171.767 0.348628ZM171.275 20.4573C169.863 13.8986 170.524 7.1745 171.768 0.345744L169.8 -0.0126666C168.542 6.89367 167.824 13.93 169.32 20.8782L171.275 20.4573ZM181.353 35.8849C176.25 31.8908 172.63 26.7665 171.275 20.4579L169.32 20.8776C170.789 27.7209 174.716 33.2297 180.12 37.4597L181.353 35.8849ZM191.147 42.0378C187.535 40.2225 184.272 38.1709 181.353 35.885L180.12 37.4596C183.151 39.8338 186.529 41.9549 190.248 43.8248L191.147 42.0378ZM204.579 47.8417C199.919 46.13 195.442 44.1952 191.146 42.0377L190.249 43.8249C194.614 46.0175 199.161 47.9821 203.889 49.719L204.579 47.8417ZM204.215 47.7947C204.34 47.7829 204.466 47.7994 204.583 47.8434L203.885 49.7173C204.05 49.7791 204.228 49.8024 204.404 49.7858L204.215 47.7947ZM203.921 47.8793C204.012 47.8336 204.111 47.8045 204.215 47.7947L204.404 49.7858C204.55 49.7719 204.691 49.7308 204.82 49.6658L203.921 47.8793ZM204.885 47.921C204.949 47.9558 205.007 47.9983 205.059 48.047L203.682 49.4981C203.755 49.5674 203.838 49.6277 203.928 49.6769L204.885 47.921ZM204.543 47.8218C204.663 47.8296 204.78 47.8634 204.886 47.9211L203.928 49.6768C204.078 49.7587 204.244 49.8067 204.414 49.8177L204.543 47.8218ZM204.191 47.8761C204.303 47.8326 204.423 47.8141 204.543 47.8218L204.414 49.8177C204.584 49.8287 204.755 49.8024 204.914 49.7406L204.191 47.8761ZM217.699 42.0234C213.491 44.1359 208.993 46.0854 204.203 47.8714L204.902 49.7454C209.753 47.9362 214.319 45.9583 218.597 43.8108L217.699 42.0234ZM228.096 35.3569C225.074 37.8378 221.61 40.0609 217.7 42.0233L218.596 43.8109C222.625 41.7893 226.216 39.4876 229.365 36.9027L228.096 35.3569ZM232.281 31.1932C231.062 32.6783 229.668 34.0664 228.096 35.3569L229.365 36.9028C231.033 35.5336 232.521 34.0535 233.827 32.4619L232.281 31.1932ZM238.204 15.1292C237.906 21.4255 235.925 26.7643 232.282 31.1922L233.826 32.4629C237.768 27.6721 239.885 21.9102 240.202 15.2237L238.204 15.1292ZM237.011 0.623218C238.034 5.51675 238.431 10.3513 238.204 15.129L240.202 15.2238C240.437 10.27 240.025 5.26602 238.969 0.213939L237.011 0.623218ZM237.64 0.999472C237.519 0.994938 237.396 0.961391 237.284 0.897446C237.176 0.835856 237.107 0.761785 237.066 0.707712C236.996 0.613721 236.997 0.558469 237.013 0.630169L238.967 0.206987C238.924 0.00539426 238.843 -0.256238 238.668 -0.489693C238.469 -0.756628 238.143 -0.982944 237.715 -0.999105L237.64 0.999472ZM237.812 1.05003C237.851 1.00843 237.881 0.979604 237.903 0.960607C237.925 0.941279 237.934 0.9362 237.929 0.938944C237.925 0.941482 237.9 0.956973 237.854 0.971828C237.806 0.987126 237.734 1.00269 237.643 0.99961L237.711 -0.999242C237.364 -1.011 237.077 -0.885724 236.876 -0.761075C236.672 -0.634898 236.495 -0.471282 236.342 -0.305851L237.812 1.05003ZM218.608 10.9948C224.705 7.24582 230.99 4.01245 237.464 1.29411L236.69 -0.549935C230.119 2.20886 223.743 5.48945 217.561 9.2912L218.608 10.9948ZM212.882 15.1036C214.884 13.4804 216.792 12.1121 218.609 10.9948L217.561 9.29128C215.658 10.4618 213.678 11.8827 211.623 13.5503L212.882 15.1036ZM205.466 24.5744C207.451 20.6481 209.927 17.4996 212.882 15.1038L211.623 13.5501C208.419 16.1468 205.776 19.5292 203.681 23.672L205.466 24.5744ZM205.311 25.0282C205.376 24.8421 205.443 24.6559 205.512 24.4697L203.635 23.7768C203.562 23.9751 203.491 24.1735 203.422 24.372L205.311 25.0282ZM203.25 24.5326C203.308 24.6953 203.365 24.8581 203.42 25.0209L205.314 24.3793C205.255 24.2063 205.195 24.0335 205.134 23.8607L203.25 24.5326ZM201.967 22.1945C202.36 22.9407 202.811 23.7702 203.318 24.6825L205.066 23.7107C204.564 22.8086 204.121 21.9926 203.737 21.2625L201.967 22.1945ZM192.796 12.7089C196.348 15.1584 200.01 18.4922 201.968 22.1959L203.736 21.2612C201.561 17.1465 197.599 13.5915 193.932 11.0625L192.796 12.7089ZM179.337 4.91035C184.034 7.15563 188.52 9.75495 192.796 12.7085L193.933 11.063C189.57 8.04917 184.992 5.39675 180.2 3.10592L179.337 4.91035ZM180.2 97.1686C177.419 95.8375 174.673 94.5724 171.962 93.3736L171.153 95.2028C173.845 96.3932 176.573 97.6498 179.337 98.9726L180.2 97.1686ZM193.933 105.125C189.57 102.112 184.992 99.4593 180.2 97.1684L179.337 98.9729C184.034 101.218 188.52 103.817 192.796 106.771L193.933 105.125ZM203.736 115.324C201.561 111.209 197.599 107.654 193.932 105.125L192.796 106.771C196.348 109.221 200.01 112.555 201.968 116.258L203.736 115.324ZM205.066 117.773C204.564 116.871 204.121 116.055 203.737 115.325L201.967 116.257C202.36 117.003 202.811 117.833 203.318 118.745L205.066 117.773ZM205.314 118.442C205.255 118.269 205.195 118.096 205.134 117.923L203.25 118.595C203.308 118.758 203.365 118.921 203.42 119.083L205.314 118.442ZM203.635 117.839C203.562 118.038 203.491 118.236 203.422 118.434L205.311 119.091C205.376 118.905 205.443 118.718 205.512 118.532L203.635 117.839ZM211.623 107.613C208.419 110.209 205.776 113.592 203.681 117.735L205.466 118.637C207.451 114.711 209.927 111.562 212.882 109.166L211.623 107.613ZM217.561 103.354C215.658 104.524 213.678 105.945 211.623 107.613L212.882 109.166C214.884 107.543 216.792 106.175 218.609 105.057L217.561 103.354ZM236.69 93.5126C230.119 96.2714 223.743 99.5519 217.561 103.354L218.608 105.057C224.705 101.308 230.99 98.075 237.464 95.3566L236.69 93.5126ZM237.711 93.0633C237.364 93.0515 237.077 93.1768 236.876 93.3014C236.672 93.4276 236.495 93.5912 236.342 93.7567L237.812 95.1125C237.851 95.0709 237.881 95.0421 237.903 95.0231C237.925 95.0038 237.934 94.9987 237.929 95.0014C237.925 95.004 237.9 95.0195 237.854 95.0343C237.806 95.0496 237.734 95.0652 237.643 95.0621L237.711 93.0633ZM238.967 94.2695C238.924 94.0679 238.843 93.8063 238.668 93.5728C238.469 93.3059 238.143 93.0796 237.715 93.0634L237.639 95.062C237.519 95.0574 237.396 95.0239 237.284 94.9599C237.176 94.8984 237.107 94.8243 237.066 94.7702C236.996 94.6762 236.997 94.621 237.013 94.6927L238.967 94.2695ZM240.202 109.286C240.437 104.332 240.025 99.3285 238.969 94.2764L237.011 94.6857C238.034 99.5793 238.431 104.414 238.204 109.191L240.202 109.286ZM233.826 126.525C237.768 121.735 239.885 115.973 240.202 109.286L238.204 109.192C237.906 115.488 235.925 120.827 232.282 125.255L233.826 126.525ZM229.365 130.965C231.033 129.596 232.521 128.116 233.827 126.524L232.281 125.256C231.062 126.741 229.668 128.129 228.096 129.419L229.365 130.965ZM218.596 137.873C222.625 135.852 226.216 133.55 229.365 130.965L228.096 129.419C225.074 131.9 221.61 134.123 217.7 136.086L218.596 137.873ZM204.902 143.808C209.753 141.999 214.319 140.021 218.597 137.873L217.699 136.086C213.491 138.198 208.993 140.148 204.203 141.934L204.902 143.808ZM204.414 143.88C204.584 143.891 204.755 143.865 204.914 143.803L204.191 141.938C204.303 141.895 204.423 141.877 204.543 141.884L204.414 143.88ZM203.928 143.739C204.078 143.821 204.244 143.869 204.414 143.88L204.543 141.884C204.663 141.892 204.78 141.926 204.886 141.984L203.928 143.739ZM203.784 143.646C203.829 143.681 203.877 143.712 203.927 143.739L204.886 141.984C204.921 142.003 204.955 142.025 204.988 142.049L203.784 143.646ZM203.682 143.561C203.714 143.591 203.748 143.62 203.785 143.647L204.986 142.049C205.012 142.068 205.036 142.088 205.059 142.109L203.682 143.561ZM204.403 143.848C204.549 143.834 204.691 143.793 204.82 143.728L203.921 141.942C204.012 141.896 204.112 141.867 204.215 141.857L204.403 143.848ZM203.884 143.78C204.05 143.842 204.228 143.865 204.404 143.848L204.215 141.857C204.339 141.845 204.466 141.862 204.584 141.906L203.884 143.78ZM190.249 137.887C194.614 140.08 199.161 142.045 203.889 143.781L204.579 141.904C199.919 140.193 195.442 138.258 191.146 136.1L190.249 137.887ZM180.12 131.522C183.151 133.896 186.529 136.017 190.248 137.887L191.147 136.1C187.535 134.285 184.272 132.233 181.353 129.948L180.12 131.522ZM169.32 114.94C170.789 121.783 174.716 127.292 180.12 131.522L181.353 129.947C176.25 125.953 172.63 120.829 171.275 114.52L169.32 114.94ZM169.8 94.0498C168.542 100.956 167.824 107.993 169.32 114.941L171.275 114.52C169.863 107.961 170.524 101.237 171.768 94.4082L169.8 94.0498ZM171.407 93.1544C171.215 93.0792 170.806 92.9696 170.382 93.2055C169.96 93.4409 169.838 93.8456 169.8 94.047L171.767 94.4111C171.758 94.4603 171.693 94.765 171.356 94.9525C171.019 95.1405 170.724 95.0351 170.676 95.0163L171.407 93.1544ZM171.923 93.3577L171.408 93.1548L170.675 95.0159L171.191 95.2188L171.923 93.3577ZM178.93 51.5361C176.13 50.187 173.364 48.905 170.634 47.6901L169.821 49.5174C172.532 50.7237 175.279 51.9972 178.062 53.3379L178.93 51.5361ZM192.756 59.5993C188.364 56.5453 183.755 53.8573 178.929 51.5358L178.062 53.3381C182.792 55.6136 187.309 58.248 191.614 61.2414L192.756 59.5993ZM202.624 69.9304C200.435 65.7633 196.447 62.1618 192.756 59.5989L191.615 61.2419C195.191 63.7243 198.88 67.104 200.853 70.8604L202.624 69.9304ZM203.848 72.2053C203.39 71.373 202.982 70.6153 202.625 69.9317L200.853 70.859C201.218 71.5574 201.633 72.3278 202.096 73.1698L203.848 72.2053ZM203.864 73.14C205.855 69.2161 208.331 66.0646 211.281 63.661L210.018 62.1105C206.822 64.7138 204.18 68.0968 202.08 72.235L203.864 73.14ZM211.281 63.6608C213.298 62.0166 215.221 60.6305 217.052 59.4987L216 57.7976C214.083 58.9829 212.089 60.4219 210.017 62.1107L211.281 63.6608ZM217.052 59.4988C223.195 55.7015 229.529 52.4265 236.053 49.6732L235.275 47.8305C228.654 50.6246 222.229 53.9472 216 57.7975L217.052 59.4988ZM236.401 49.4279C236.44 49.3856 236.47 49.3561 236.492 49.3366C236.515 49.3167 236.525 49.3113 236.52 49.3139C236.517 49.3162 236.491 49.3317 236.445 49.3466C236.398 49.362 236.326 49.3777 236.234 49.3746L236.303 47.3758C235.954 47.3639 235.665 47.4905 235.463 47.6163C235.259 47.7436 235.08 47.9087 234.927 48.0758L236.401 49.4279ZM236.231 49.3745C236.11 49.3699 235.986 49.336 235.874 49.2717C235.767 49.2099 235.698 49.1357 235.658 49.0821C235.589 48.9891 235.59 48.9356 235.606 49.0095L237.561 48.5884C237.518 48.3855 237.437 48.1229 237.263 47.8887C237.064 47.621 236.737 47.3922 236.306 47.3759L236.231 49.3745ZM235.605 49.0026C236.636 53.9603 237.036 58.8584 236.807 63.6989L238.805 63.7933C239.042 58.7775 238.627 53.7108 237.563 48.5953L235.605 49.0026ZM236.807 63.6991C236.507 70.0798 234.509 75.4905 230.836 79.9774L232.384 81.2442C236.353 76.3942 238.486 70.5617 238.805 63.7931L236.807 63.6991ZM230.835 79.9785C229.607 81.4832 228.201 82.8896 226.617 84.1969L227.89 85.7396C229.57 84.3532 231.069 82.8546 232.384 81.2432L230.835 79.9785ZM226.617 84.197C223.571 86.7101 220.081 88.9621 216.14 90.9497L217.04 92.7355C221.099 90.6882 224.718 88.3572 227.89 85.7396L226.617 84.197ZM216.139 90.9498C212.039 93.0189 207.665 94.9336 203.016 96.6934L203.724 98.5638C208.433 96.7811 212.872 94.8385 217.04 92.7354L216.139 90.9498ZM204.352 97.8214C204.353 97.8145 204.355 97.8077 204.356 97.8009C204.357 97.7941 204.358 97.7875 204.359 97.7808L202.382 97.4764C202.381 97.4833 202.38 97.4902 202.379 97.4969C202.378 97.5037 202.377 97.5104 202.376 97.517L204.352 97.8214ZM204.166 98.299C204.261 98.157 204.324 97.9967 204.351 97.8293L202.377 97.5091C202.396 97.3942 202.439 97.2839 202.504 97.1859L204.166 98.299ZM203.796 98.6523C203.945 98.5623 204.071 98.4412 204.166 98.2991L202.505 97.1858C202.57 97.0876 202.658 97.0033 202.762 96.9404L203.796 98.6523ZM203.301 98.8161C203.478 98.7992 203.646 98.7425 203.796 98.6524L202.762 96.9402C202.867 96.8772 202.985 96.8371 203.111 96.8251L203.301 98.8161ZM202.779 98.7467C202.945 98.8093 203.124 98.833 203.301 98.816L203.11 96.8251C203.236 96.8131 203.363 96.8299 203.482 96.8743L202.779 98.7467ZM202.66 98.7029C202.701 98.7181 202.742 98.7333 202.783 98.7485L203.477 96.8726C203.436 96.8576 203.396 96.8427 203.355 96.8277L202.66 98.7029ZM202.656 96.8292C202.617 96.8438 202.578 96.8584 202.539 96.8731L203.241 98.7459C203.281 98.7311 203.32 98.7163 203.36 98.7014L202.656 96.8292ZM202.527 96.8779C202.639 96.8339 202.76 96.8153 202.881 96.8231L202.751 98.8189C202.922 98.83 203.094 98.8035 203.254 98.7411L202.527 96.8779ZM202.881 96.8231C203.001 96.8309 203.118 96.865 203.224 96.9231L202.263 98.6767C202.413 98.7593 202.58 98.8078 202.751 98.8189L202.881 96.8231ZM203.224 96.923C203.33 96.981 203.421 97.0613 203.492 97.1575L201.881 98.3428C201.982 98.4802 202.112 98.5944 202.263 98.6769L203.224 96.923ZM203.492 97.1576C203.563 97.2539 203.612 97.3644 203.636 97.4814L201.676 97.8807C201.71 98.0478 201.78 98.2054 201.881 98.3428L203.492 97.1576ZM203.634 97.4726C203.63 97.4559 203.627 97.4393 203.623 97.4226L201.667 97.8378C201.671 97.855 201.674 97.8723 201.678 97.8896L203.634 97.4726ZM189.049 92.7754C193.294 94.9212 197.709 96.8516 202.295 98.5668L202.995 96.6936C198.477 95.0033 194.129 93.1022 189.951 90.9905L189.049 92.7754ZM178.851 86.3252C181.903 88.731 185.304 90.8804 189.049 92.7752L189.952 90.9906C186.315 89.1508 183.029 87.0714 180.089 84.7545L178.851 86.3252ZM167.982 69.5289C169.46 76.4591 173.411 82.0393 178.851 86.3254L180.089 84.7544C174.951 80.7059 171.302 75.5102 169.938 69.1118L167.982 69.5289ZM168.465 48.3657C167.198 55.3641 166.477 62.4918 167.982 69.5295L169.938 69.1112C168.515 62.4606 169.18 55.6431 170.433 48.7219L168.465 48.3657ZM170.076 47.468C169.883 47.3919 169.471 47.2811 169.046 47.5196C168.624 47.7565 168.502 48.1624 168.465 48.3628L170.432 48.7247C170.424 48.771 170.36 49.0755 170.024 49.2639C169.686 49.4539 169.389 49.3473 169.341 49.3283L170.076 47.468ZM170.596 47.674L170.077 47.4684L169.34 49.3279L169.86 49.5335L170.596 47.674Z" fill="white" fill-opacity="0.33" mask="url(#path-5-inside-3_0_4805)"/>
</svg>
